<?xml version="1.0" standalone="no"?>
<!DOCTYPE svg PUBLIC "-//W3C//DTD SVG 20010904//EN"
 "http://www.w3.org/TR/2001/REC-SVG-20010904/DTD/svg10.dtd">
<svg version="1.0" xmlns="http://www.w3.org/2000/svg"
 width="680.000000pt" height="731.000000pt" viewBox="0 0 680.000000 731.000000"
 preserveAspectRatio="xMidYMid meet">

<g transform="translate(0.000000,731.000000) scale(0.100000,-0.100000)"
fill="#fff" stroke="none">
<path d="M4607 7139 c-77 -18 -141 -70 -180 -143 -18 -35 -22 -62 -25 -188
l-4 -148 -858 0 -857 0 -5 144 c-6 161 -20 206 -79 265 -100 101 -282 94 -377
-13 -53 -61 -63 -97 -69 -253 l-6 -141 -211 -4 c-187 -4 -218 -7 -271 -26
-120 -45 -228 -136 -283 -240 -66 -125 -62 -10 -62 -1686 0 -1286 2 -1529 15
-1575 47 -179 200 -330 375 -370 30 -7 640 -11 1827 -11 l1782 0 76 24 c176
56 302 190 350 372 13 51 15 254 15 1564 0 1428 -1 1509 -18 1571 -44 159
-169 293 -328 351 -52 19 -85 22 -276 26 l-218 4 0 141 c0 156 -12 202 -68
260 -58 61 -166 95 -245 76z m-1888 -784 c15 -55 14 -94 -6 -155 -22 -68 -88
-141 -161 -177 -75 -37 -192 -40 -264 -6 -66 30 -132 95 -159 156 -30 67 -32
166 -4 217 l19 35 16 -70 c20 -85 38 -120 82 -161 55 -53 95 -68 173 -68 53 0
80 5 111 21 79 42 144 138 144 214 0 13 3 34 6 47 6 21 7 22 19 5 7 -10 18
-36 24 -58z m1690 -5 c2 -41 46 -124 87 -164 75 -73 205 -84 298 -26 78 50
116 121 129 240 l2 25 20 -30 c16 -23 20 -46 20 -110 0 -70 -4 -87 -30 -134
-33 -59 -77 -100 -145 -133 -64 -31 -186 -32 -252 -1 -66 30 -132 95 -159 156
-30 66 -31 165 -4 217 l19 35 7 -25 c4 -14 7 -36 8 -50z m867 -576 c18 -9 43
-31 54 -49 20 -32 20 -47 20 -1249 l0 -1216 -34 -38 -34 -37 -1730 -3 -1729
-2 -34 23 c-18 12 -39 34 -46 47 -10 20 -13 287 -13 1233 0 1334 -4 1246 63
1287 31 20 64 20 1740 20 1549 0 1712 -2 1743 -16z"/>
<path d="M2780 5455 c-28 -13 -32 -18 -20 -26 12 -8 10 -9 -6 -4 -28 7 -55
-22 -33 -37 11 -8 10 -9 -4 -4 -14 4 -22 -3 -33 -29 -12 -30 -14 -157 -12
-878 3 -805 4 -844 22 -880 27 -55 84 -90 154 -95 70 -5 33 -24 597 312 242
145 473 282 513 306 40 23 70 45 67 48 -3 3 2 14 12 24 10 12 12 18 4 18 -7 0
-10 4 -7 9 4 5 0 11 -6 14 -7 2 -1 4 15 4 33 1 35 -19 5 -47 -37 -34 -11 -23
125 57 227 132 247 151 247 246 0 66 -38 111 -146 173 -49 28 -376 218 -728
424 -692 404 -685 401 -766 365z m65 -5 c4 -6 1 -9 -6 -8 -7 2 -14 -3 -15 -9
-1 -7 -2 -21 -4 -30 -1 -12 -5 -9 -12 11 -8 22 -13 25 -20 15 -8 -11 -9 -11
-5 1 2 8 11 14 20 12 8 -1 18 2 22 8 8 13 12 13 20 0z m45 -16 c-9 -10 -9 -14
-1 -14 6 0 11 -5 11 -11 0 -5 -4 -8 -9 -5 -10 6 -33 -17 -30 -30 3 -21 -2 -35
-11 -29 -5 3 -6 13 -3 23 6 15 5 15 -10 3 -9 -7 -14 -17 -11 -22 3 -5 0 -8 -8
-7 -8 2 -12 -4 -10 -16 3 -17 2 -17 -12 -4 -17 18 -10 64 8 49 7 -6 19 -3 35
10 21 17 20 24 -3 20 -5 -1 -4 5 4 13 14 17 21 20 19 9 -3 -17 2 -24 11 -18 6
4 7 13 1 24 -8 13 -5 17 11 18 16 2 17 -1 8 -13z m34 -20 c3 -8 2 -12 -4 -9
-6 3 -10 10 -10 16 0 14 7 11 14 -7z m41 -24 c-10 -11 -18 -34 -18 -50 0 -17
-5 -30 -10 -30 -15 0 3 73 21 87 25 18 28 16 7 -7z m-183 -9 c-9 -10 -21 -15
-27 -13 -5 3 -4 7 3 10 7 2 10 7 8 11 -3 4 4 7 14 8 18 2 18 1 2 -16z m138
-11 c0 -5 -9 -6 -20 -3 -11 3 -20 9 -20 13 0 5 9 6 20 3 11 -3 20 -9 20 -13z
m67 -3 c0 -8 -6 -14 -14 -14 -17 0 -17 14 0 20 6 3 12 6 13 6 0 1 1 -5 1 -12z
m-284 -27 c-3 -12 -8 -19 -11 -16 -5 6 5 36 12 36 2 0 2 -9 -1 -20z m197 16
c0 -11 -19 -15 -25 -6 -3 5 1 10 9 10 9 0 16 -2 16 -4z m130 0 c0 -2 -7 -7
-16 -10 -8 -3 -12 -2 -9 4 6 10 25 14 25 6z m45 -6 c4 -6 -1 -7 -11 -3 -13 5
-15 3 -9 -7 5 -9 4 -11 -3 -6 -7 4 -12 11 -12 17 0 12 27 12 35 -1z m-331 -25
c5 0 11 -6 14 -13 3 -10 -2 -10 -22 -1 -14 7 -26 16 -26 21 0 5 6 6 13 1 6 -4
16 -8 21 -8z m232 -11 c1 -9 0 -13 -4 -10 -3 4 -7 14 -8 22 -1 9 0 13 4 10 3
-4 7 -14 8 -22z m-56 1 c0 -8 -4 -15 -10 -15 -5 0 -7 7 -4 15 4 8 8 15 10 15
2 0 4 -7 4 -15z m185 7 c-5 -4 -10 -14 -10 -22 0 -10 -8 -14 -24 -12 -15 2
-21 0 -17 -7 11 -18 0 -13 -20 10 -18 20 -18 20 9 15 15 -2 32 -8 39 -12 7 -5
9 -2 5 8 -6 18 0 28 17 28 7 0 7 -3 1 -8z m-224 -21 c7 11 9 11 9 -3 0 -22
-19 -33 -26 -15 -3 9 -13 13 -25 10 -11 -3 -19 0 -19 6 0 7 4 10 9 6 5 -3 13
0 17 6 5 8 10 6 17 -6 8 -14 11 -15 18 -4z m-192 -121 c-5 -9 -8 14 -7 55 l1
70 7 -55 c4 -30 3 -62 -1 -70z m56 110 c3 -5 1 -10 -4 -10 -6 0 -11 5 -11 10
0 6 2 10 4 10 3 0 8 -4 11 -10z m240 -24 c40 -30 43 -35 30 -52 -9 -13 -10
-23 -3 -31 6 -8 -2 -7 -21 3 -17 8 -36 12 -43 8 -10 -6 -10 -4 0 8 8 10 9 19
3 22 -5 3 -11 1 -13 -6 -3 -7 -7 -5 -11 6 -4 9 -3 15 1 12 5 -3 16 4 25 14 15
18 7 37 -11 26 -5 -3 -9 1 -9 9 0 20 2 20 52 -19z m37 10 c3 2 8 -3 12 -12 6
-15 4 -15 -16 -2 -12 8 -24 21 -26 29 -2 9 1 8 11 -3 8 -10 16 -15 19 -12z
m171 -9 c-3 -4 -6 -7 -7 -5 -1 2 -8 12 -16 22 -14 18 -14 18 7 6 12 -8 19 -18
16 -23z m-286 1 c-3 -8 -6 -5 -6 6 -1 11 2 17 5 13 3 -3 4 -12 1 -19z m229 -5
c-1 -14 -7 -28 -14 -29 -7 -1 -8 0 -2 3 16 8 12 36 -5 29 -8 -3 -15 -1 -15 4
0 5 8 11 18 13 9 3 17 5 18 6 1 0 1 -11 0 -26z m-356 7 c0 -5 -5 -10 -11 -10
-5 0 -7 5 -4 10 3 6 8 10 11 10 2 0 4 -4 4 -10z m440 -22 c0 -10 3 -9 9 1 6 9
11 10 15 2 4 -6 2 -11 -3 -11 -19 0 -26 -2 -43 -11 -14 -7 -18 -6 -18 5 0 10
6 13 17 9 11 -4 14 -3 9 5 -4 7 -2 12 3 12 6 0 11 -6 11 -12z m-500 -9 c0 -8
6 -7 18 2 16 13 16 12 2 -5 -8 -10 -15 -25 -16 -33 -4 -24 -14 -28 -14 -5 0
11 -3 27 -6 36 -3 9 -1 16 5 16 6 0 11 -5 11 -11z m130 7 c0 -3 -4 -8 -10 -11
-5 -3 -10 -1 -10 4 0 6 5 11 10 11 6 0 10 -2 10 -4z m55 -6 c-3 -5 -11 -10
-16 -10 -6 0 -7 5 -4 10 3 6 11 10 16 10 6 0 7 -4 4 -10z m160 -10 c-3 -5 3
-13 12 -19 12 -7 13 -10 4 -11 -8 0 -11 -7 -8 -20 3 -11 1 -18 -4 -14 -5 3 -9
0 -9 -5 0 -6 -7 -11 -15 -11 -8 0 -15 8 -15 18 0 14 2 15 10 2 7 -12 11 -10
19 10 7 19 5 28 -7 38 -10 8 -11 12 -3 12 7 0 9 5 5 12 -4 7 -3 8 5 4 6 -4 9
-11 6 -16z m105 1 c0 -5 -10 -11 -22 -14 -22 -6 -22 -6 -4 8 23 17 26 18 26 6z
m120 -11 c0 -5 8 -11 18 -13 13 -4 12 -5 -5 -6 -12 0 -23 -7 -26 -13 -2 -7 -6
1 -9 18 -3 24 -1 31 9 27 7 -3 13 -9 13 -13z m-539 -13 c-10 -9 -11 -8 -5 6 3
10 9 15 12 12 3 -3 0 -11 -7 -18z m45 6 c-4 -10 2 -25 16 -40 13 -14 16 -22 8
-18 -22 8 -41 42 -34 60 3 8 8 15 11 15 3 0 2 -7 -1 -17z m309 7 c3 -6 -1 -7
-9 -4 -18 7 -21 14 -7 14 6 0 13 -4 16 -10z m86 -17 c0 -5 2 -18 5 -31 2 -13
0 -21 -5 -18 -5 4 -11 0 -13 -6 -3 -7 -4 4 -4 24 1 21 4 38 9 38 4 0 7 -3 8
-7z m-418 -23 c3 -11 1 -20 -4 -20 -5 0 -9 9 -9 20 0 11 2 20 4 20 2 0 6 -9 9
-20z m127 10 c14 -4 18 -8 10 -9 -9 -1 -23 -10 -33 -21 -9 -11 -22 -20 -29
-20 -9 0 -8 3 2 10 9 6 11 13 5 18 -5 4 -11 13 -12 20 -3 13 19 14 57 2z m248
-16 c2 -1 -8 -1 -21 0 -15 0 -23 6 -20 14 4 10 9 10 22 0 9 -7 17 -13 19 -14z
m233 -12 c-7 -2 -17 1 -21 8 -6 9 -12 10 -26 1 -17 -9 -17 -10 -2 -11 21 0 32
-16 17 -26 -7 -4 -9 -3 -6 3 4 6 -3 14 -16 17 -20 6 -21 7 -5 20 10 7 14 16
10 21 -4 4 9 -1 28 -10 21 -11 30 -20 21 -23z m-416 8 c-3 -5 1 -10 9 -10 8 0
14 -8 13 -19 0 -11 -5 -17 -9 -15 -5 3 -6 9 -3 14 3 4 -2 10 -10 14 -17 6 -20
26 -4 26 5 0 7 -4 4 -10z m-218 -20 c6 -22 19 -26 25 -8 3 7 7 6 11 -5 4 -11
1 -17 -8 -17 -7 0 -21 -14 -29 -32 -21 -41 -20 -48 4 -20 21 26 40 22 40 -9 0
-10 5 -19 10 -19 6 0 10 5 10 10 0 6 5 10 11 10 8 0 8 -4 0 -14 -9 -11 -9 -15
1 -20 7 -3 1 -3 -14 0 -18 4 -28 2 -28 -6 0 -7 -8 -9 -22 -5 -22 6 -22 6 -4
-9 24 -19 36 -20 36 -3 0 8 4 7 10 -3 8 -12 11 -13 19 -1 6 9 11 10 15 2 4 -6
2 -11 -4 -11 -7 0 -10 -6 -7 -12 2 -7 9 -12 15 -11 5 1 16 -4 22 -13 11 -12
10 -13 -6 -8 -10 4 -28 15 -40 26 -11 10 -23 15 -27 12 -3 -4 -18 1 -31 10
-14 9 -37 17 -51 18 -24 2 -25 5 -25 75 0 73 8 87 35 60 8 -9 10 -19 4 -29 -6
-10 -4 -20 5 -27 11 -9 15 -7 19 9 7 26 -3 61 -14 54 -5 -3 -9 0 -9 5 0 19 22
12 27 -9z m177 -15 c-19 -15 -19 -15 1 -8 18 6 18 5 6 -10 -13 -16 -14 -16
-26 0 -11 15 -10 19 9 28 28 15 35 9 10 -10z m186 21 c0 -3 -4 -8 -10 -11 -5
-3 -10 -1 -10 4 0 6 5 11 10 11 6 0 10 -2 10 -4z m50 -6 c0 -5 -4 -10 -10 -10
-5 0 -10 5 -10 10 0 6 5 10 10 10 6 0 10 -4 10 -10z m134 -3 c4 4 4 -1 0 -11
-4 -11 -9 -14 -14 -6 -3 6 -14 8 -23 4 -10 -3 -17 -1 -17 6 0 6 5 8 10 5 6 -3
10 -1 10 6 0 8 3 9 13 0 8 -6 17 -8 21 -4z m116 -7 c0 -5 -2 -10 -4 -10 -3 0
-8 5 -11 10 -3 6 -1 10 4 10 6 0 11 -4 11 -10z m-274 -15 c10 -10 11 -15 3
-15 -8 0 -8 -5 2 -17 8 -9 9 -14 2 -10 -6 4 -14 1 -17 -5 -3 -7 -3 -1 -1 15 4
27 -10 38 -17 15 -3 -7 -7 -5 -11 6 -4 10 -3 15 3 11 6 -3 10 -1 10 4 0 15 9
14 26 -4z m-276 -5 c0 -5 -8 -10 -17 -10 -15 0 -16 2 -3 10 19 12 20 12 20 0z
m625 -10 c22 -8 25 -13 15 -25 -6 -8 -9 -19 -5 -25 3 -5 2 -10 -4 -10 -17 0
-23 20 -11 35 8 10 9 15 2 15 -6 0 -14 -5 -17 -10 -4 -6 -11 -8 -16 -4 -6 3
-17 -2 -25 -12 -14 -18 -15 -18 -5 2 6 12 8 24 5 26 -2 3 8 3 23 1 27 -5 28
-5 8 12 -11 9 -15 14 -9 11 6 -3 24 -10 39 -16z m-410 -17 c-5 -23 -4 -25 8
-14 12 9 17 9 23 0 4 -7 3 -9 -4 -5 -6 3 -14 1 -18 -5 -5 -9 -11 -7 -21 6 -15
22 -17 39 -3 30 6 -3 10 -1 10 4 0 6 3 11 6 11 3 0 3 -12 -1 -27z m320 8 c-3
-6 -11 -11 -16 -11 -5 0 -4 6 3 14 14 16 24 13 13 -3z m-578 -6 c0 -8 -4 -15
-9 -15 -4 0 -8 7 -8 15 0 8 4 15 8 15 5 0 9 -7 9 -15z m423 9 c0 -8 -19 -13
-24 -6 -3 5 1 9 9 9 8 0 15 -2 15 -3z m108 -8 c-22 -16 -24 -30 -3 -23 8 4 17
1 21 -5 4 -7 3 -8 -4 -4 -8 4 -12 0 -12 -11 0 -14 -2 -15 -9 -4 -5 8 -16 11
-26 7 -16 -6 -16 -4 -4 11 12 15 12 16 -6 9 -24 -9 -14 2 17 20 31 16 47 17
26 0z m-73 -25 c-6 -5 -25 10 -25 20 0 5 6 4 14 -3 8 -7 12 -15 11 -17z m-417
11 c15 12 16 11 3 -4 -14 -19 -32 -15 -30 5 0 8 2 8 6 -1 4 -10 8 -10 21 0z
m102 2 c0 -8 -19 -13 -24 -6 -3 5 1 9 9 9 8 0 15 -2 15 -3z m53 -1 c-7 -2 -19
-2 -25 0 -7 3 -2 5 12 5 14 0 19 -2 13 -5z m17 -23 c-6 -11 -16 -17 -22 -14
-7 5 -5 12 7 21 25 18 28 17 15 -7z m160 10 c8 -5 11 -10 5 -10 -5 0 -17 5
-25 10 -8 5 -10 10 -5 10 6 0 17 -5 25 -10z m35 -10 c3 -5 1 -10 -4 -10 -6 0
-11 5 -11 10 0 6 2 10 4 10 3 0 8 -4 11 -10z m168 -7 c-7 -2 -9 -11 -6 -19 4
-10 0 -12 -11 -8 -16 6 -16 8 0 25 10 11 20 16 23 13 3 -4 1 -9 -6 -11z m77
-15 c0 -2 -9 -4 -20 -4 -19 0 -27 16 -14 29 6 5 34 -16 34 -25z m100 23 c0 -9
-30 -25 -42 -23 -12 3 -10 -16 2 -23 6 -4 8 -10 5 -15 -3 -4 1 -10 9 -13 19
-7 28 17 13 34 -7 7 -3 6 8 -2 11 -9 26 -14 34 -11 9 3 11 0 6 -7 -4 -7 -13
-10 -20 -7 -8 3 -17 -3 -20 -14 -6 -19 -7 -19 -26 -1 -11 10 -21 32 -23 48 -4
27 -2 30 16 25 14 -3 19 -1 14 6 -4 7 -1 12 8 12 9 0 16 -4 16 -9z m-590 -11
c-18 -12 -53 -13 -46 -2 2 4 17 8 33 10 21 1 24 -1 13 -8z m68 -7 c-2 -11 2
-17 10 -15 8 1 11 -2 8 -7 -3 -5 -15 -7 -25 -4 -17 4 -18 8 -8 24 15 24 19 24
15 2z m83 -6 c-10 -9 -11 -8 -5 6 3 10 9 15 12 12 3 -3 0 -11 -7 -18z m-284
-9 c-3 -8 -6 -5 -6 6 -1 11 2 17 5 13 3 -3 4 -12 1 -19z m244 -4 c5 -15 8 -29
5 -31 -2 -2 -8 10 -14 26 -13 38 -5 41 9 5z m89 16 c0 -5 -5 -10 -11 -10 -5 0
-7 5 -4 10 3 6 8 10 11 10 2 0 4 -4 4 -10z m146 -17 c-10 -10 -19 5 -10 18 6
11 8 11 12 0 2 -7 1 -15 -2 -18z m-343 -12 c-4 -16 -8 -19 -14 -10 -4 7 -3 19
3 26 14 18 19 12 11 -16z m504 7 c-3 -8 -6 -5 -6 6 -1 11 2 17 5 13 3 -3 4
-12 1 -19z m-537 4 c0 -13 -42 -29 -62 -24 -10 2 -18 8 -18 13 0 6 8 6 20 -1
14 -8 22 -7 32 5 15 16 28 19 28 7z m260 -2 c0 -5 -2 -10 -4 -10 -3 0 -8 5
-11 10 -3 6 -1 10 4 10 6 0 11 -4 11 -10z m417 -12 c-3 -8 -6 -5 -6 6 -1 11 2
17 5 13 3 -3 4 -12 1 -19z m-457 2 c0 -5 -2 -10 -4 -10 -3 0 -8 5 -11 10 -3 6
-1 10 4 10 6 0 11 -4 11 -10z m89 -17 c2 -1 -6 -1 -18 0 -11 1 -21 8 -21 15 0
12 3 12 18 1 9 -7 19 -14 21 -16z m31 15 c0 -7 -4 -19 -9 -27 -7 -10 -9 -7 -8
12 2 26 17 39 17 15z m180 8 c0 -2 -9 -6 -20 -9 -11 -3 -18 -1 -14 4 5 9 34
13 34 5z m-440 -17 c0 -5 5 -7 10 -4 6 3 10 1 10 -5 0 -15 -32 -9 -38 8 -2 6
1 12 7 12 6 0 11 -5 11 -11z m114 -4 c11 -8 17 -17 14 -20 -3 -3 -12 1 -21 9
-8 8 -17 12 -21 9 -3 -4 -6 -1 -6 5 0 16 11 15 34 -3z m240 2 c-3 -8 2 -20 11
-27 8 -7 15 -17 15 -23 0 -6 -11 4 -25 23 -29 40 -29 40 -10 40 8 0 12 -6 9
-13z m-691 -48 c-5 -61 -13 -61 -13 0 0 29 4 50 8 47 5 -3 7 -24 5 -47z m43
31 c8 0 14 -5 14 -10 0 -7 -6 -7 -20 0 -11 6 -20 16 -19 23 0 9 2 9 6 0 2 -7
11 -13 19 -13z m944 10 c0 -5 -5 -10 -11 -10 -5 0 -7 5 -4 10 3 6 8 10 11 10
2 0 4 -4 4 -10z m-748 -14 c-3 -5 2 -7 11 -3 13 5 16 1 15 -18 -1 -13 -6 -21
-10 -19 -4 3 -8 -3 -8 -13 0 -15 -2 -16 -10 -3 -6 10 -6 16 0 18 6 2 10 8 10
14 0 6 -7 7 -16 4 -10 -4 -13 -2 -8 6 5 7 -1 9 -18 5 -17 -5 -28 -2 -31 6 -3
9 7 12 33 12 21 0 36 -4 32 -9z m574 2 c5 -7 3 -8 -6 -3 -10 6 -12 4 -6 -10 5
-15 4 -16 -9 -5 -8 7 -12 16 -9 21 7 12 21 11 30 -3z m137 -4 c-2 -7 -13 -10
-24 -7 -27 7 -24 21 5 19 13 0 22 -6 19 -12z m-460 -32 c-20 -11 -27 -11 -33
-2 -5 7 -15 10 -25 7 -9 -4 -14 -3 -10 2 3 5 2 11 -2 14 -5 2 -1 2 7 0 58 -16
70 -15 70 3 0 16 2 17 10 4 7 -11 3 -18 -17 -28z m67 28 c-12 -8 -12 -10 -1
-10 8 0 12 -3 8 -6 -9 -9 -28 6 -22 17 4 5 12 9 18 9 7 0 6 -4 -3 -10z m130
-25 c0 0 -8 -1 -18 -1 -10 0 -19 8 -19 17 -2 16 0 17 18 1 10 -9 19 -17 19
-17z m210 25 c0 -5 -4 -10 -10 -10 -5 0 -10 5 -10 10 0 6 5 10 10 10 6 0 10
-4 10 -10z m-810 -12 c0 -9 4 -8 11 2 9 12 10 12 7 1 -6 -21 -24 -25 -31 -6
-4 8 -2 15 3 15 6 0 10 -6 10 -12z m247 -10 c-3 -8 -6 -5 -6 6 -1 11 2 17 5
13 3 -3 4 -12 1 -19z m510 0 c-3 -8 -6 -5 -6 6 -1 11 2 17 5 13 3 -3 4 -12 1
-19z m243 -26 c0 -15 2 -15 10 -2 5 8 10 11 10 5 -1 -14 -30 -51 -31 -39 -1 5
-1 12 0 17 0 4 -4 7 -10 7 -6 0 -9 -9 -6 -19 6 -23 -7 -48 -17 -32 -4 6 -3 11
3 11 6 0 8 7 4 15 -3 9 3 25 12 35 22 24 14 25 -28 3 -30 -15 -31 -15 -18 0
11 14 11 17 0 18 -8 1 -17 1 -21 0 -5 0 -8 4 -8 9 0 6 6 10 14 10 8 0 18 -4
21 -10 3 -5 11 -10 17 -10 6 0 5 7 -3 17 -13 15 -11 15 19 -1 17 -9 32 -24 32
-34z m-306 23 c3 -9 -1 -18 -9 -21 -8 -4 -13 -9 -11 -13 3 -4 -5 -8 -17 -8
-19 -2 -18 0 7 16 26 18 27 20 10 30 -16 9 -17 10 -3 11 9 0 20 -7 23 -15z
m-368 -42 c11 -4 12 -9 3 -19 -6 -8 -17 -14 -23 -14 -6 0 -5 4 3 9 7 5 10 14
6 20 -5 9 -10 7 -19 -5 -11 -15 -13 -15 -13 0 0 9 4 16 9 16 4 0 7 3 7 8 -3
20 4 34 8 14 3 -13 11 -26 19 -29z m222 22 c-3 -3 -9 2 -12 12 -6 14 -5 15 5
6 7 -7 10 -15 7 -18z m187 15 c-3 -5 -1 -10 6 -10 7 0 10 -3 6 -6 -9 -9 -28 6
-22 17 4 5 8 9 11 9 3 0 2 -4 -1 -10z m155 6 c0 -3 -4 -8 -10 -11 -5 -3 -10
-1 -10 4 0 6 5 11 10 11 6 0 10 -2 10 -4z m-950 -16 c0 -5 -2 -10 -4 -10 -3 0
-8 5 -11 10 -3 6 -1 10 4 10 6 0 11 -4 11 -10z m137 -16 c2 -10 0 -13 -3 -6
-3 6 -9 10 -13 8 -4 -3 -8 2 -8 10 0 21 22 11 24 -12z m45 1 c3 -13 1 -22 -3
-19 -9 5 -13 44 -5 44 2 0 6 -11 8 -25z m142 -20 c-9 -23 -10 -35 -4 -35 6 0
8 -5 4 -11 -4 -8 -9 -7 -15 2 -4 7 -5 17 -3 21 3 5 -5 12 -18 17 -22 9 -22 10
5 10 16 1 26 5 22 11 -3 6 -1 10 5 10 6 0 8 5 4 12 -4 6 -3 8 4 4 8 -4 7 -17
-4 -41z m186 35 c0 -5 -13 -10 -28 -10 -16 0 -32 -3 -36 -7 -3 -4 -14 -8 -22
-9 -9 -1 -13 1 -9 4 4 4 10 7 13 8 4 0 14 3 22 7 49 19 60 20 60 7z m355 -8
c-3 -3 -11 0 -18 7 -9 10 -8 11 6 5 10 -3 15 -9 12 -12z m-820 -2 c3 -6 -1 -7
-9 -4 -18 7 -21 14 -7 14 6 0 13 -4 16 -10z m255 -2 c0 -5 -7 -8 -16 -8 -8 0
-22 -7 -31 -15 -8 -9 -18 -13 -22 -10 -3 4 2 11 12 16 9 6 16 13 13 17 -2 4 7
7 20 7 13 0 24 -3 24 -7z m100 2 c0 -5 -2 -10 -4 -10 -3 0 -8 5 -11 10 -3 6
-1 10 4 10 6 0 11 -4 11 -10z m236 -15 c0 -15 -4 -21 -9 -16 -5 5 -7 17 -4 25
9 23 13 20 13 -9z m215 5 c10 0 19 -5 19 -11 0 -5 4 -8 9 -4 15 9 24 -15 11
-30 -6 -8 -9 -18 -7 -22 3 -5 -1 -17 -9 -28 -17 -22 -17 -20 -4 24 7 24 6 39
-1 48 -13 15 -33 18 -25 4 4 -5 -4 -7 -16 -3 -12 3 -17 7 -11 9 7 3 11 10 9
16 -1 7 -1 9 1 5 3 -5 13 -8 24 -8z m119 10 c0 -5 -5 -10 -11 -10 -5 0 -7 5
-4 10 3 6 8 10 11 10 2 0 4 -4 4 -10z m-372 -13 c8 -10 6 -13 -7 -13 -11 0
-17 6 -14 13 3 7 6 13 8 13 1 0 7 -6 13 -13z m66 -2 c3 -8 1 -15 -4 -15 -6 0
-10 7 -10 15 0 8 2 15 4 15 2 0 6 -7 10 -15z m-654 -5 c0 -5 -7 -10 -16 -10
-8 0 -12 5 -9 10 3 6 10 10 16 10 5 0 9 -4 9 -10z m70 0 c0 -5 -8 -10 -17 -10
-15 0 -16 2 -3 10 19 12 20 12 20 0z m720 -2 c0 -5 -4 -7 -9 -4 -8 6 -59 -28
-73 -49 -5 -6 -8 -5 -8 3 0 7 7 15 16 19 13 5 13 8 2 15 -9 6 -8 8 7 6 11 -2
19 2 18 7 -1 6 10 11 23 11 13 1 24 -2 24 -8z m146 -13 c1 -8 -2 -13 -7 -9 -5
3 -9 12 -9 21 0 19 13 9 16 -12z m-884 -10 c10 6 10 5 1 -5 -10 -11 -15 -11
-28 0 -8 7 -15 18 -15 24 0 6 7 3 15 -8 8 -11 19 -15 27 -11z m459 16 c-11 -7
-10 -11 5 -20 17 -11 17 -11 -3 -6 -16 4 -22 2 -20 -7 2 -7 2 -10 0 -5 -7 12
-41 8 -46 -5 -3 -10 -7 -10 -17 -1 -9 8 -19 9 -32 2 -12 -6 -18 -6 -18 0 0 6
9 15 19 20 15 8 20 7 25 -5 8 -21 27 -8 20 14 -4 10 -2 13 3 7 14 -17 43 -18
37 0 -5 11 0 15 17 15 18 0 20 -3 10 -9z m619 -1 c0 -5 -4 -10 -10 -10 -5 0
-10 5 -10 10 0 6 5 10 10 10 6 0 10 -4 10 -10z m-1173 -22 c-3 -8 -6 -5 -6 6
-1 11 2 17 5 13 3 -3 4 -12 1 -19z m151 10 c10 -10 15 -10 23 2 8 12 9 9 4
-10 -3 -14 -8 -34 -10 -44 -3 -11 -10 -23 -16 -27 -7 -4 -8 -16 -4 -30 7 -23
6 -22 -20 5 -20 21 -29 26 -35 16 -5 -8 -10 -9 -14 -2 -3 6 -2 13 4 17 6 4 8
11 5 16 -4 5 -2 9 4 9 5 0 11 -5 13 -12 3 -7 7 -6 11 5 4 12 1 17 -11 18 -12
0 -10 3 7 10 16 6 28 6 37 -2 10 -8 14 -8 14 -1 0 15 -35 33 -45 24 -5 -4 -5
-1 -1 6 9 15 19 15 34 0z m102 4 c0 -5 -7 -17 -15 -28 -14 -18 -14 -17 -4 9
12 27 19 34 19 19z m56 -14 c4 -6 3 -8 -3 -5 -5 3 -10 0 -10 -7 0 -8 6 -12 13
-9 6 2 15 0 19 -6 3 -7 0 -8 -9 -5 -9 3 -16 1 -16 -6 0 -6 -4 -8 -10 -5 -13 8
-13 55 -1 55 6 0 13 -5 17 -12z m379 2 c-3 -5 -12 -10 -18 -10 -7 0 -6 4 3 10
19 12 23 12 15 0z m455 -11 c0 -11 7 -16 18 -14 9 1 12 0 5 -2 -8 -3 -11 -21
-9 -49 2 -25 -1 -47 -6 -50 -4 -3 -8 2 -8 10 0 8 -8 20 -17 26 -16 9 -15 10 4
5 20 -6 22 -4 14 17 -5 13 -14 22 -20 21 -15 -4 -14 14 2 20 9 4 8 8 -3 16
-10 7 -17 6 -22 -2 -5 -8 -8 -8 -8 -1 0 16 10 23 31 21 11 -1 19 -9 19 -18z
m-290 7 c0 -3 -4 -8 -10 -11 -5 -3 -10 -1 -10 4 0 6 5 11 10 11 6 0 10 -2 10
-4z m30 -6 c0 -5 -4 -10 -10 -10 -5 0 -10 5 -10 10 0 6 5 10 10 10 6 0 10 -4
10 -10z m61 -13 c-10 -9 -11 -8 -5 6 3 10 9 15 12 12 3 -3 0 -11 -7 -18z m93
-27 c-5 -5 -9 4 -10 23 -1 30 -1 30 9 9 6 -14 7 -26 1 -32z m215 23 c2 -2 -3
-3 -11 -3 -9 0 -19 7 -22 16 -6 15 -4 15 11 3 10 -7 20 -15 22 -16z m-979 7
c0 -5 -5 -10 -11 -10 -5 0 -7 5 -4 10 3 6 8 10 11 10 2 0 4 -4 4 -10z m143
-30 c-3 -3 -8 1 -10 8 -4 10 -8 10 -21 0 -14 -12 -14 -10 -3 10 12 23 13 23
26 5 7 -10 11 -20 8 -23z m207 31 c0 -11 -59 -36 -67 -27 -3 3 1 6 11 6 9 0
15 4 11 9 -3 5 5 12 17 14 13 2 24 5 26 6 1 0 2 -3 2 -8z m33 -5 c4 -10 1 -13
-8 -9 -8 3 -12 9 -9 14 7 12 11 11 17 -5z m137 -6 c-24 -15 -37 -11 -16 5 11
8 22 12 25 9 3 -3 -1 -9 -9 -14z m-793 -12 c-3 -8 -6 -5 -6 6 -1 11 2 17 5 13
3 -3 4 -12 1 -19z m50 0 c-3 -8 -6 -5 -6 6 -1 11 2 17 5 13 3 -3 4 -12 1 -19z
m958 11 c11 -16 1 -19 -13 -3 -7 8 -8 14 -3 14 5 0 13 -5 16 -11z m-125 -3 c0
-3 -4 -8 -10 -11 -5 -3 -10 -1 -10 4 0 6 5 11 10 11 6 0 10 -2 10 -4z m210 -5
c0 -5 -9 -11 -20 -14 -11 -3 -20 -1 -20 3 0 5 8 11 18 13 9 3 18 5 20 6 1 0 2
-3 2 -8z m-909 -32 c-5 -13 -10 -19 -10 -12 -1 15 10 45 15 40 3 -2 0 -15 -5
-28z m94 21 c3 -6 -1 -7 -9 -4 -18 7 -21 14 -7 14 6 0 13 -4 16 -10z m570 0
c-3 -5 -3 -10 2 -10 4 0 9 -11 9 -26 2 -22 1 -23 -11 -8 -6 9 -17 14 -23 10
-17 -10 -15 1 5 24 18 21 28 27 18 10z m-615 -32 c0 -19 -16 -5 -17 14 -2 18
0 20 7 8 5 -8 10 -18 10 -22z m245 22 c-3 -5 -12 -10 -18 -10 -7 0 -6 4 3 10
19 12 23 12 15 0z m202 4 c-3 -3 -12 -4 -19 -1 -8 3 -5 6 6 6 11 1 17 -2 13
-5z m628 -4 c3 -6 -1 -7 -9 -4 -18 7 -21 14 -7 14 6 0 13 -4 16 -10z m-1308
-22 c-3 -8 -6 -5 -6 6 -1 11 2 17 5 13 3 -3 4 -12 1 -19z m49 11 c-4 6 -2 11
3 11 6 0 11 -7 11 -15 0 -9 -9 -15 -22 -15 -21 0 -21 0 3 -27 l24 -26 -25 16
c-30 21 -40 21 -40 3 0 -8 16 -20 35 -26 19 -6 35 -16 35 -22 0 -7 -4 -7 -12
-1 -23 18 -58 22 -58 7 0 -8 5 -13 11 -11 17 3 19 -31 3 -37 -18 -7 -18 -30 1
-46 12 -10 17 -7 26 14 7 14 16 26 21 26 5 0 7 4 4 9 -4 5 1 8 9 7 21 -3 31
-16 12 -16 -21 0 -22 -16 -1 -24 8 -3 13 -10 9 -15 -3 -6 -12 -8 -20 -5 -8 4
-12 10 -9 15 3 5 1 9 -3 9 -5 0 -14 -9 -21 -20 -6 -11 -18 -17 -26 -14 -9 4
-16 -3 -19 -18 -2 -13 -5 25 -6 83 -1 90 2 108 15 113 9 4 14 13 10 21 -5 13
-2 14 15 4 15 -8 19 -8 15 0z m254 1 c0 -5 -12 -10 -27 -9 l-28 1 25 8 c14 4
26 8 28 9 1 1 2 -3 2 -9z m130 -1 c0 -6 -9 -8 -21 -4 -14 5 -19 3 -15 -3 4 -6
-2 -8 -14 -5 -11 3 -18 8 -16 12 7 11 66 12 66 0z m280 -4 c0 -8 -2 -15 -4
-15 -2 0 -6 7 -10 15 -3 8 -1 15 4 15 6 0 10 -7 10 -15z m-205 -13 c-3 -3 -11
0 -18 7 -9 10 -8 11 6 5 10 -3 15 -9 12 -12z m150 -1 c-3 -6 -11 -8 -17 -5 -6
4 -5 9 3 15 16 10 23 4 14 -10z m432 13 c-3 -3 -12 -4 -19 -1 -8 3 -5 6 6 6
11 1 17 -2 13 -5z m-507 -14 c0 -5 -2 -10 -4 -10 -3 0 -8 5 -11 10 -3 6 -1 10
4 10 6 0 11 -4 11 -10z m30 6 c0 -3 -4 -8 -10 -11 -5 -3 -10 -1 -10 4 0 6 5
11 10 11 6 0 10 -2 10 -4z m176 -11 c-23 -18 -36 -19 -36 -4 0 5 4 8 9 4 5 -3
12 -1 16 5 3 5 12 10 18 10 7 0 3 -7 -7 -15z m154 -5 c0 -11 -6 -20 -12 -20
-7 0 -4 -7 7 -16 17 -12 18 -16 5 -24 -8 -5 -18 -6 -23 -3 -5 3 -4 9 3 13 9 6
8 10 -5 17 -15 9 -15 11 -1 16 9 4 13 13 10 22 -3 8 -1 15 5 15 6 0 11 -9 11
-20z m100 9 c0 -5 5 -7 12 -3 7 4 8 3 4 -4 -5 -8 1 -12 14 -12 13 0 19 4 14
11 -4 8 0 7 15 -1 43 -22 9 -33 -49 -15 -19 6 -36 35 -20 35 6 0 10 -5 10 -11z
m225 -1 c5 4 5 1 1 -6 -5 -8 -1 -21 10 -33 12 -14 14 -18 3 -14 -8 3 -22 19
-32 37 -11 20 -13 27 -4 20 8 -7 18 -8 22 -4z m38 -3 c4 -8 1 -17 -6 -21 -7
-4 -9 -4 -5 1 4 4 3 14 -3 22 -7 8 -8 13 -1 13 5 0 12 -7 15 -15z m40 0 c-3
-9 -8 -14 -10 -11 -3 3 -2 9 2 15 9 16 15 13 8 -4z m-1128 -5 c4 -6 15 -6 32
1 36 13 37 7 2 -13 -17 -10 -29 -13 -29 -6 0 6 -9 8 -19 5 -14 -3 -18 -1 -14
9 6 16 19 18 28 4z m108 3 c-7 -2 -19 -2 -25 0 -7 3 -2 5 12 5 14 0 19 -2 13
-5z m117 -13 c-14 -26 -13 -33 5 -27 8 4 17 2 20 -2 2 -5 -6 -11 -20 -13 -13
-3 -24 -2 -23 1 0 3 0 17 -1 31 l-2 25 -11 -22 c-6 -13 -15 -23 -20 -23 -26 0
13 45 42 47 17 2 18 -1 10 -17z m530 -2 c0 -18 -2 -20 -9 -8 -6 8 -7 18 -5 22
9 14 14 9 14 -14z m30 3 c0 -11 -4 -23 -10 -26 -15 -9 -12 -25 4 -25 9 0 12
-8 8 -26 -4 -20 -2 -25 8 -19 8 5 11 4 6 -3 -11 -18 -34 -3 -29 19 4 13 0 19
-12 19 -16 0 -16 1 0 26 9 14 14 32 11 40 -3 8 -1 14 4 14 6 0 10 -9 10 -19z
m-926 -7 c3 -8 2 -12 -4 -9 -6 3 -10 10 -10 16 0 14 7 11 14 -7z m30 1 c-4 -8
-8 -15 -10 -15 -2 0 -4 7 -4 15 0 8 4 15 10 15 5 0 7 -7 4 -15z m381 5 c-3 -5
-1 -10 6 -10 7 0 10 -3 6 -6 -9 -9 -28 6 -22 17 4 5 8 9 11 9 3 0 2 -4 -1 -10z
m78 3 c3 -5 -6 -8 -19 -8 -13 0 -24 3 -24 8 0 4 9 7 19 7 11 0 22 -3 24 -7z
m157 -2 c0 -5 -7 -12 -16 -15 -14 -5 -15 -4 -4 9 14 17 20 19 20 6z m493 -4
c3 -8 -1 -14 -8 -14 -7 0 -11 6 -8 14 3 7 6 13 8 13 2 0 5 -6 8 -13z m-903 -7
c8 -5 11 -12 8 -16 -4 -3 -14 1 -23 10 -18 17 -9 21 15 6z m300 6 c0 -2 -7 -9
-15 -16 -13 -11 -14 -10 -9 4 5 14 24 23 24 12z m65 -14 c-3 -3 -11 0 -18 7
-9 10 -8 11 6 5 10 -3 15 -9 12 -12z m740 9 c3 -6 -3 -14 -13 -20 -14 -7 -19
-6 -19 4 0 8 4 12 9 9 4 -3 8 0 8 5 0 14 7 14 15 2z m-1151 -23 c15 -17 15
-20 3 -15 -9 3 -18 1 -21 -6 -2 -7 -5 0 -5 16 -1 33 0 33 23 5z m483 7 c0 -8
-4 -12 -9 -9 -5 3 -6 10 -3 15 9 13 12 11 12 -6z m93 10 c0 -3 -9 -14 -19 -24
-16 -16 -20 -17 -25 -5 -3 9 -1 12 4 9 6 -3 13 1 16 9 6 15 24 23 24 11z
m-688 -19 c-12 -7 -19 -16 -15 -21 4 -4 2 -5 -4 -1 -22 13 -14 31 14 33 27 1
27 1 5 -11z m418 10 c0 -3 -4 -8 -10 -11 -5 -3 -10 -1 -10 4 0 6 5 11 10 11 6
0 10 -2 10 -4z m43 -11 c-3 -9 -8 -14 -10 -11 -3 3 -2 9 2 15 9 16 15 13 8 -4z
m557 5 c0 -5 -8 -10 -17 -10 -15 0 -16 2 -3 10 19 12 20 12 20 0z m202 -14
c13 -18 13 -23 3 -23 -8 0 -11 5 -8 10 4 6 0 8 -10 4 -12 -5 -17 -1 -17 13 0
26 11 25 32 -4z m-1166 -4 c1 -7 0 -8 -3 -2 -2 5 -9 8 -14 4 -5 -3 -9 0 -9 6
0 15 23 7 26 -8z m519 8 c3 -5 1 -10 -6 -10 -8 0 -8 -4 1 -15 11 -13 11 -18 0
-28 -10 -10 -12 -9 -7 6 4 11 1 17 -10 17 -12 0 -13 3 -4 13 6 8 8 17 4 20 -3
4 -1 7 5 7 6 0 14 -4 17 -10z m382 -4 c-7 -6 -27 -19 -45 -28 -26 -14 -32 -14
-32 -3 0 7 10 15 23 17 12 2 21 8 20 13 -1 6 9 11 22 11 19 2 21 -1 12 -10z
m364 -13 c5 -13 3 -28 -6 -40 -13 -17 -14 -16 -9 7 5 20 3 22 -5 10 -9 -13
-11 -13 -11 2 0 9 -6 19 -12 22 -7 3 -2 3 12 -1 23 -5 24 -5 10 12 -12 15 -12
17 -1 14 8 -3 18 -14 22 -26z m-984 2 c0 -8 -4 -15 -9 -15 -10 0 -11 14 -1 23
9 10 10 9 10 -8z m348 5 c-3 -5 -1 -10 5 -10 6 0 8 -5 4 -12 -5 -7 -2 -9 7 -6
10 4 15 -1 17 -15 1 -17 -1 -19 -8 -7 -8 12 -11 11 -16 -7 -4 -13 -11 -23 -16
-23 -7 0 -7 -5 0 -13 7 -8 7 -18 2 -27 -8 -12 -10 -10 -10 9 0 15 -5 21 -13
18 -8 -3 -14 1 -14 8 0 8 7 11 16 7 14 -5 14 -4 2 11 -12 15 -12 17 2 12 20
-8 30 10 18 33 -6 11 -7 22 -4 26 10 9 15 7 8 -4z m415 6 c0 -2 -7 -7 -16 -10
-8 -3 -12 -2 -9 4 6 10 25 14 25 6z m-733 -28 c-3 -8 -6 -5 -6 6 -1 11 2 17 5
13 3 -3 4 -12 1 -19z m288 -7 c15 -9 16 -11 3 -7 -10 3 -18 1 -18 -3 0 -5 -11
-8 -24 -7 -13 0 -22 5 -19 9 3 5 12 6 20 3 11 -5 13 -1 8 17 -3 12 -3 17 2 11
4 -6 17 -16 28 -23z m525 14 c0 -9 -6 -12 -15 -9 -8 4 -12 10 -9 15 8 14 24
10 24 -6z m-1043 -1 c-3 -3 -12 -4 -19 -1 -8 3 -5 6 6 6 11 1 17 -2 13 -5z
m78 -17 c6 -5 0 -6 -12 -2 -15 4 -25 0 -32 -12 -7 -12 -10 -13 -11 -4 0 8 -6
11 -16 7 -8 -3 -12 -2 -9 4 3 6 15 10 25 10 10 0 22 5 25 11 4 6 10 7 14 2 3
-4 11 -11 16 -16z m305 3 c-8 -15 -8 -20 1 -20 7 0 10 -3 6 -6 -3 -3 -10 -3
-15 0 -12 7 -4 46 10 46 5 0 4 -9 -2 -20z m260 -30 c1 3 3 13 5 23 5 25 11 31
17 15 3 -7 -3 -26 -13 -43 -14 -22 -19 -25 -19 -12 0 10 -3 16 -8 13 -4 -2 -8
10 -8 27 l-1 32 13 -30 c7 -16 14 -28 14 -25z m254 36 c-3 -7 2 -16 11 -20 11
-4 15 -12 11 -22 -4 -10 -1 -14 6 -11 7 2 12 12 10 21 -3 15 -2 15 17 -1 14
-11 17 -21 11 -28 -6 -7 -8 -14 -5 -17 3 -3 -4 -13 -15 -23 -13 -12 -20 -14
-20 -5 0 10 -4 9 -17 -1 -12 -10 -15 -10 -9 -1 5 8 -1 15 -16 21 -16 7 -18 10
-6 10 9 1 20 -4 23 -9 5 -8 11 -7 21 1 11 9 14 9 14 -1 0 -20 13 -3 17 21 2
14 -1 18 -9 12 -12 -7 -88 -12 -88 -5 0 2 14 8 31 14 30 10 30 11 9 25 -11 8
-18 19 -15 24 9 14 25 11 19 -5z m-912 -26 c21 -21 25 -30 14 -30 -9 0 -16 3
-16 8 0 4 -7 15 -15 26 -13 18 -15 17 -37 -9 l-23 -26 -25 26 c-17 19 -20 24
-7 19 9 -3 17 -9 17 -13 0 -16 33 -7 38 11 6 25 19 23 54 -12z m158 20 c0 -5
-8 -10 -17 -10 -15 0 -16 2 -3 10 19 12 20 12 20 0z m830 -5 c0 -8 -2 -15 -4
-15 -2 0 -6 7 -10 15 -3 8 -1 15 4 15 6 0 10 -7 10 -15z m170 6 c0 -5 -7 -12
-16 -15 -24 -9 -28 -7 -14 9 14 17 30 20 30 6z m-1300 -9 c0 -5 -7 -17 -15
-28 -14 -18 -14 -17 -4 9 12 27 19 34 19 19z m281 -17 c5 3 6 -1 3 -9 -3 -9
-10 -14 -14 -11 -5 3 -11 -1 -14 -7 -3 -7 -3 -2 0 11 4 16 2 21 -5 17 -7 -5
-8 -1 -4 10 5 15 7 15 15 0 5 -9 13 -14 19 -11z m199 14 c0 -5 -5 -7 -11 -4
-6 4 -16 -1 -23 -11 -10 -13 -15 -14 -21 -4 -5 8 -4 11 2 7 6 -4 13 0 17 8 6
17 36 21 36 4z m467 5 c-3 -3 -12 -4 -19 -1 -8 3 -5 6 6 6 11 1 17 -2 13 -5z
m244 -14 c10 0 19 5 19 11 0 5 5 7 11 3 18 -11 -19 -27 -47 -20 -15 4 -24 2
-24 -5 0 -7 -3 -9 -6 -6 -4 4 -1 14 7 23 8 10 15 12 17 5 2 -6 12 -11 23 -11z
m-798 -16 c3 -18 1 -24 -9 -20 -20 8 -17 -4 4 -20 15 -12 15 -12 -5 -7 -13 3
-23 10 -23 17 0 6 -7 2 -15 -8 -8 -11 -15 -15 -15 -9 0 14 28 43 41 43 5 0 8
3 8 8 -5 30 8 28 14 -4z m907 6 c-20 -13 -33 -13 -25 0 3 6 14 10 23 10 15 0
15 -2 2 -10z m73 -10 c-19 -22 -25 -60 -9 -60 6 0 6 -4 -1 -11 -8 -8 -8 -20
-2 -36 6 -16 5 -22 -1 -18 -6 3 -10 2 -10 -4 0 -13 -29 -41 -42 -41 -6 0 -1 8
11 18 29 23 38 114 10 96 -5 -3 -9 0 -9 6 0 7 7 9 15 6 10 -3 15 -1 13 7 -3
16 20 57 32 57 6 0 2 -9 -7 -20z m-1043 0 c-8 -5 -19 -10 -25 -10 -5 0 -3 5 5
10 8 5 20 10 25 10 6 0 3 -5 -5 -10z m275 1 c3 -5 2 -12 -3 -15 -5 -3 -9 1 -9
9 0 17 3 19 12 6z m41 -13 c-1 -12 -8 -22 -19 -24 -17 -2 -16 6 6 34 13 16 14
15 13 -10z m313 -8 c11 -22 10 -23 -2 -8 -8 10 -17 15 -21 11 -4 -4 -4 1 0 10
7 20 7 20 23 -13z m291 26 c0 -2 -8 -10 -17 -17 -16 -13 -17 -12 -4 4 13 16
21 21 21 13z m88 -16 c-7 -11 -17 -20 -22 -20 -5 0 -1 9 9 20 10 11 20 20 22
20 2 0 -2 -9 -9 -20z m122 10 c0 -5 -5 -10 -11 -10 -5 0 -7 5 -4 10 3 6 8 10
11 10 2 0 4 -4 4 -10z m-707 -15 c-3 -9 -8 -14 -10 -11 -3 3 -2 9 2 15 9 16
15 13 8 -4z m138 -21 c-11 -15 -21 -22 -21 -15 0 12 32 50 39 45 2 -2 -6 -15
-18 -30z m-398 16 c7 0 3 -6 -8 -12 -19 -11 -19 -11 0 -18 12 -4 24 -2 30 6 7
10 14 11 25 3 13 -9 12 -10 -2 -5 -13 4 -18 0 -18 -14 0 -24 -4 -25 -35 -4
-14 9 -22 21 -19 26 4 6 0 15 -7 20 -11 8 -10 8 4 4 10 -3 24 -6 30 -6z m87 0
c0 -5 -5 -10 -11 -10 -5 0 -7 5 -4 10 3 6 8 10 11 10 2 0 4 -4 4 -10z m270 -7
c0 -15 -2 -16 -10 -3 -11 18 -23 8 -14 -14 3 -9 11 -13 17 -9 6 4 1 -8 -12
-25 -25 -36 -27 -37 -37 -20 -4 6 -3 8 4 4 16 -10 32 25 21 46 -6 10 -7 23 -4
28 10 17 35 11 35 -7z m450 13 c0 -2 -9 -6 -20 -9 -11 -3 -18 -1 -14 4 5 9 34
13 34 5z m96 -8 c5 -7 3 -8 -6 -3 -10 6 -12 4 -7 -8 3 -10 2 -17 -3 -17 -11 0
-13 23 -3 33 9 9 11 9 19 -5z m116 -2 c15 -11 15 -16 4 -31 -7 -10 -19 -15
-27 -12 -10 4 -9 6 4 6 16 1 23 21 11 34 -9 9 -35 -4 -28 -14 3 -5 -2 -6 -11
-2 -10 3 -21 0 -26 -8 -7 -12 -9 -11 -9 1 0 14 32 36 55 38 6 1 18 -5 27 -12z
m-1506 -21 c1 -8 -3 -18 -8 -22 -7 -3 -8 -1 -4 5 4 7 3 12 -3 12 -6 0 -8 7 -4
15 6 18 16 12 19 -10z m76 -5 c-2 -16 -8 -27 -13 -24 -5 3 -8 8 -6 12 2 4 7
15 10 25 10 26 14 20 9 -13z m108 6 c16 -1 31 3 33 8 3 6 8 7 13 3 21 -20 -55
-31 -86 -12 -5 3 -10 1 -10 -5 0 -6 -4 -9 -10 -5 -5 3 -7 12 -3 21 4 11 9 12
19 3 7 -6 27 -12 44 -13z m85 14 c-3 -5 -12 -10 -18 -10 -7 0 -6 4 3 10 19 12
23 12 15 0z m942 -15 c9 -20 8 -25 -3 -25 -8 0 -14 4 -14 9 0 5 -3 16 -6 25
-10 26 10 18 23 -9z m-782 5 c3 -5 1 -10 -4 -10 -6 0 -11 5 -11 10 0 6 2 10 4
10 3 0 8 -4 11 -10z m160 -9 c-8 -14 -25 -14 -25 0 0 5 5 7 10 4 6 -3 10 -1
10 6 0 7 3 10 6 6 3 -3 3 -10 -1 -16z m341 0 c0 -11 -3 -19 -6 -19 -18 2 -23
-4 -10 -12 13 -8 13 -10 -2 -10 -9 0 -20 5 -23 10 -3 6 -1 10 5 10 6 0 8 5 4
12 -4 6 -3 8 3 5 6 -4 13 0 17 8 7 20 12 19 12 -4z m249 10 c3 -5 2 -12 -3
-15 -5 -3 -9 1 -9 9 0 17 3 19 12 6z m60 -1 c3 -5 2 -10 -4 -10 -5 0 -13 5
-16 10 -3 6 -2 10 4 10 5 0 13 -4 16 -10z m-1279 -35 c1 -8 -2 -13 -7 -9 -5 3
-9 12 -9 21 0 19 13 9 16 -12z m659 15 c3 -5 1 -10 -4 -10 -6 0 -11 5 -11 10
0 6 2 10 4 10 3 0 8 -4 11 -10z m35 0 c-12 -8 -13 -12 -2 -19 11 -7 11 -9 -2
-14 -11 -4 -16 -1 -16 12 0 20 8 31 24 31 6 0 4 -5 -4 -10z m600 -10 c-11 -11
-24 -20 -30 -20 -13 0 -13 -6 0 -31 6 -10 7 -19 3 -19 -5 0 -14 14 -20 30 -6
17 -8 28 -3 25 4 -2 18 4 30 15 30 26 46 26 20 0z m-1325 -8 c-3 -3 -11 0 -18
7 -9 10 -8 11 6 5 10 -3 15 -9 12 -12z m302 3 c0 -8 -4 -12 -9 -9 -5 3 -6 10
-3 15 9 13 12 11 12 -6z m47 -1 c6 -15 4 -15 -11 -3 -10 7 -20 15 -22 16 -2 2
3 3 11 3 9 0 19 -7 22 -16z m90 -29 c5 -18 3 -17 -13 4 -14 18 -20 20 -23 10
-3 -8 -9 -11 -13 -7 -4 4 -5 14 -1 23 4 13 9 13 25 3 11 -7 22 -21 25 -33z
m43 18 c-2 -25 -27 -47 -27 -23 0 6 5 8 10 5 6 -3 10 -1 10 4 0 6 -8 12 -17
12 -17 1 -17 2 0 6 9 2 17 9 17 14 0 5 2 9 4 9 3 0 4 -12 3 -27z m360 -8 c1
-29 1 -29 -7 -5 -4 14 -8 21 -9 16 -1 -5 -7 -3 -14 3 -8 6 -16 8 -19 5 -3 -3
-8 -2 -11 3 -3 5 9 8 27 8 29 0 32 -3 33 -30z m367 21 c8 3 16 -2 20 -11 3 -9
10 -14 14 -11 5 3 9 -1 9 -9 0 -13 -3 -13 -16 -2 -9 8 -24 17 -33 20 -10 4
-18 12 -17 19 0 9 2 10 5 1 3 -7 11 -10 18 -7z m172 6 c13 -9 14 -42 2 -42 -6
0 -8 6 -5 13 2 6 -3 17 -12 24 -17 13 -4 18 15 5z m134 -7 c-14 -17 -30 -20
-30 -6 0 5 8 12 18 14 9 3 19 5 21 6 2 0 -2 -6 -9 -14z m-1287 -2 c-7 -2 -19
-2 -25 0 -7 3 -2 5 12 5 14 0 19 -2 13 -5z m294 1 c-3 -3 -12 -4 -19 -1 -8 3
-5 6 6 6 11 1 17 -2 13 -5z m571 -18 c0 -17 -5 -23 -17 -21 -9 2 -19 4 -23 4
-9 1 23 39 33 40 4 1 7 -10 7 -23z m75 9 c-3 -9 -8 -14 -10 -11 -3 3 -2 9 2
15 9 16 15 13 8 -4z m181 0 c3 -9 -3 -19 -17 -25 -19 -10 -20 -9 -6 2 9 7 14
19 12 26 -6 17 4 15 11 -3z m-1260 -25 c-8 -8 -15 -5 -25 7 -13 17 -13 17 5 3
18 -14 19 -13 12 5 -6 16 -5 18 5 8 9 -9 10 -16 3 -23z m182 21 c-3 -5 3 -11
14 -14 23 -6 27 -24 5 -24 -8 0 -11 5 -8 10 4 6 -4 7 -21 3 -16 -4 -26 -2 -26
4 0 6 -6 8 -12 4 -10 -5 -10 -3 0 7 11 12 14 12 22 -1 8 -13 10 -12 10 3 0 9
5 17 11 17 5 0 8 -4 5 -9z m689 -11 c2 -4 -6 -5 -19 -3 -13 3 -30 -2 -39 -12
-10 -9 -17 -13 -17 -9 0 28 60 48 75 24z m58 -5 c-7 -21 -13 -19 -13 6 0 11 4
18 10 14 5 -3 7 -12 3 -20z m452 15 c-3 -5 -11 -10 -16 -10 -6 0 -7 5 -4 10 3
6 11 10 16 10 6 0 7 -4 4 -10z m95 -9 c16 -31 12 -36 -10 -11 -23 26 -24 30
-10 30 5 0 14 -9 20 -19z m50 3 c0 -2 -9 -4 -20 -4 -11 0 -20 4 -20 9 0 5 9 7
20 4 11 -3 20 -7 20 -9z m-1662 -7 c18 7 17 5 -10 -16 -16 -12 -18 -11 -17 10
0 13 3 19 5 12 3 -7 13 -9 22 -6z m42 -7 c-11 -20 -2 -27 16 -12 5 4 6 3 2 -2
-11 -14 -10 -28 2 -21 5 3 7 0 4 -8 -3 -8 5 -18 18 -25 13 -6 16 -11 8 -11
-36 3 -46 -1 -27 -12 9 -6 15 -14 13 -18 -11 -17 -14 -61 -5 -61 6 0 7 -5 4
-11 -11 -16 -18 -3 -20 36 -1 19 3 35 9 35 6 0 4 5 -4 10 -20 13 -33 13 -25 0
3 -5 1 -10 -4 -10 -18 0 -12 17 10 31 l21 14 -22 25 c-20 24 -21 24 -15 3 3
-12 1 -24 -4 -28 -7 -3 -8 0 -5 9 4 11 0 16 -12 16 -16 0 -16 2 4 16 12 8 20
19 17 24 -4 7 4 14 23 19 1 1 -2 -8 -8 -19z m153 0 c-3 -12 -8 -19 -11 -16 -5
6 5 36 12 36 2 0 2 -9 -1 -20z m41 -15 c-19 -14 -19 -14 1 -15 15 -1 16 -3 5
-7 -8 -3 -18 -11 -23 -17 -4 -6 -5 2 -2 19 2 16 9 31 15 33 5 2 7 9 4 15 -5 8
-2 8 6 0 12 -11 11 -15 -6 -28z m482 26 c-4 -5 -1 -11 5 -13 15 -5 21 -58 8
-58 -6 0 -8 3 -6 8 8 12 -12 54 -23 47 -6 -3 -7 1 -4 9 3 9 10 16 16 16 5 0 7
-4 4 -9z m99 -1 c-3 -5 -14 -10 -23 -9 -14 0 -13 2 3 9 27 11 27 11 20 0z
m884 -55 c0 -16 -4 -37 -9 -45 -7 -11 -10 -11 -10 -2 0 7 -5 10 -12 6 -7 -4
-8 -3 -4 5 4 6 12 8 18 5 8 -5 9 10 5 47 -4 35 -3 47 3 34 5 -11 9 -33 9 -50z
m-1301 44 c-2 -3 3 -13 11 -22 11 -15 11 -17 -2 -17 -9 0 -19 5 -22 10 -4 6
-11 8 -16 5 -5 -4 -9 1 -9 11 0 14 2 15 17 3 15 -12 16 -12 10 4 -4 12 -3 17
4 15 6 -2 9 -6 7 -9z m143 -16 c-12 -20 -14 -14 -5 12 4 9 9 14 11 11 3 -2 0
-13 -6 -23z m712 8 c-2 -10 3 -25 12 -35 9 -9 12 -16 6 -16 -15 0 -34 39 -27
56 8 20 15 17 9 -5z m294 2 c2 -6 -4 -13 -13 -17 -14 -5 -15 -4 -5 8 8 10 9
16 1 19 -6 3 -5 4 2 3 6 -1 13 -7 15 -13z m-1387 -15 c0 -16 -3 -19 -11 -11
-6 6 -8 16 -5 22 11 17 16 13 16 -11z m424 7 c3 -8 1 -15 -4 -15 -6 0 -10 7
-10 15 0 8 2 15 4 15 2 0 6 -7 10 -15z m425 -8 c23 6 38 -15 17 -23 -21 -8
-20 -24 1 -24 9 0 14 -3 10 -6 -3 -3 -22 -1 -42 6 -20 7 -34 15 -31 18 3 3 2
10 -2 17 -4 6 1 3 10 -8 10 -10 23 -15 29 -11 8 5 7 9 -5 16 -9 5 -15 17 -15
26 1 15 2 15 6 1 2 -11 11 -15 22 -12z m567 -3 c-21 -20 -28 -17 -14 5 7 11
16 17 20 15 5 -3 2 -12 -6 -20z m-1105 -2 c-7 -2 -18 1 -23 6 -8 8 -4 9 13 5
13 -4 18 -8 10 -11z m345 3 c-11 -8 -24 -15 -30 -15 -5 0 -1 7 10 15 10 8 24
14 29 14 6 0 1 -6 -9 -14z m64 4 c12 -8 9 -9 -9 -4 -19 6 -23 4 -18 -9 4 -10
1 -16 -8 -16 -17 0 -17 2 -9 24 7 18 23 20 44 5z m541 -6 c-1 -4 -7 -8 -13 -8
-7 -1 -12 -7 -10 -14 1 -7 -2 -10 -7 -7 -5 4 -11 1 -13 -6 -3 -8 -9 -8 -24 1
-10 7 -12 10 -3 8 8 -3 26 6 38 19 22 23 34 26 32 7z m-770 -61 c-6 -2 -9 -8
-6 -12 3 -5 2 -11 -3 -14 -4 -2 -9 4 -9 15 -1 10 2 19 7 19 6 0 5 11 0 26 -15
40 -10 43 7 4 10 -23 11 -36 4 -38z m37 54 c-7 -8 -15 -12 -17 -11 -5 6 10 25
20 25 5 0 4 -6 -3 -14z m398 1 c4 -4 -2 -7 -14 -7 -12 0 -22 4 -22 9 0 10 26
9 36 -2z m43 -23 c-9 -11 -39 -9 -39 3 0 3 7 2 16 -1 12 -5 14 -1 8 16 -6 20
-5 21 10 9 12 -10 13 -17 5 -27z m-1140 -15 c0 8 4 12 7 9 3 -4 -1 -19 -10
-35 l-15 -28 1 50 c0 43 1 46 8 20 4 -16 8 -24 9 -16z m118 34 c-9 -2 -14 -9
-11 -15 4 -7 2 -8 -5 -4 -15 10 -4 26 17 25 15 -1 15 -2 -1 -6z m240 -15 c1
-10 -3 -18 -8 -18 -6 0 -8 4 -4 9 3 6 -3 14 -12 20 -16 9 -16 10 3 8 12 0 21
-8 21 -19z m174 4 c-7 -2 -18 1 -23 6 -8 8 -4 9 13 5 13 -4 18 -8 10 -11z m98
-5 c0 -9 -2 -8 -6 1 -2 6 -9 9 -15 6 -5 -3 -2 -15 9 -27 9 -12 11 -17 4 -10
-11 10 -17 9 -27 -5 -12 -16 -14 -16 -28 3 -23 29 -19 41 4 14 10 -13 19 -18
20 -11 0 18 -4 27 -12 25 -5 -2 -8 2 -8 8 0 6 7 9 15 6 8 -4 17 -2 20 4 8 12
25 2 24 -14z m621 -2 c19 -20 21 -28 11 -38 -10 -9 -12 -9 -9 2 2 8 -8 20 -22
28 -14 7 -19 13 -10 13 13 0 13 1 0 10 -8 5 -10 10 -4 10 6 0 21 -11 34 -25z
m368 18 c-10 -2 -18 -9 -18 -15 0 -6 -3 -9 -6 -5 -10 10 6 27 24 26 15 -1 15
-2 0 -6z m-788 -38 c-7 -8 -17 -15 -22 -15 -5 0 -2 7 6 16 9 8 13 21 10 27 -5
9 -3 8 6 0 11 -10 11 -15 0 -28z m110 25 c0 5 5 10 10 10 16 0 12 -17 -6 -24
-9 -4 -23 -1 -30 5 -11 9 -14 8 -14 -1 0 -8 -3 -11 -6 -7 -14 13 7 27 27 17
13 -7 19 -7 19 0z m390 -6 c0 -8 -5 -12 -10 -9 -6 4 -8 11 -5 16 9 14 15 11
15 -7z m190 12 c0 -3 -4 -8 -10 -11 -5 -3 -10 -1 -10 4 0 6 5 11 10 11 6 0 10
-2 10 -4z m143 -11 c-3 -9 -8 -14 -10 -11 -3 3 -2 9 2 15 9 16 15 13 8 -4z
m-1235 -8 c14 4 14 3 3 -5 -17 -12 -43 -4 -34 11 5 8 8 8 10 0 3 -7 12 -9 21
-6z m88 -7 c8 0 14 -5 14 -10 0 -7 -6 -7 -20 0 -11 6 -20 16 -19 23 0 9 2 9 6
0 2 -7 11 -13 19 -13z m204 16 c0 -2 -7 -7 -16 -10 -8 -3 -12 -2 -9 4 6 10 25
14 25 6z m901 -15 c-6 -10 -7 -21 -4 -25 3 -3 -1 -6 -11 -6 -15 0 -15 2 0 25
19 29 29 34 15 6z m-1461 -1 c0 -5 -5 -10 -11 -10 -5 0 -7 5 -4 10 3 6 8 10
11 10 2 0 4 -4 4 -10z m100 -5 c0 -9 -9 -15 -22 -14 -18 1 -19 2 -5 6 9 2 15
9 12 14 -4 5 -1 9 4 9 6 0 11 -7 11 -15z m40 -1 c0 -8 -5 -12 -10 -9 -6 4 -8
11 -5 16 9 14 15 11 15 -7z m480 6 c0 -5 -2 -10 -4 -10 -3 0 -8 5 -11 10 -3 6
-1 10 4 10 6 0 11 -4 11 -10z m388 -3 c-5 -7 24 -37 31 -33 4 3 8 -6 9 -19 1
-13 -3 -27 -8 -30 -5 -3 -7 1 -4 9 6 15 -34 63 -48 59 -14 -5 -9 15 5 20 13 4
21 2 15 -6z m322 1 c0 -4 -4 -8 -9 -8 -6 0 -12 4 -15 8 -3 5 1 9 9 9 8 0 15
-4 15 -9z m-1155 -8 c3 -5 1 -10 -4 -10 -6 0 -11 5 -11 10 0 6 2 10 4 10 3 0
8 -4 11 -10z m427 -4 c16 -12 16 -14 -7 -36 -14 -13 -28 -20 -32 -17 -3 4 -1
7 6 7 7 0 9 5 5 12 -4 7 -3 8 4 4 8 -5 12 0 12 13 0 10 -6 22 -12 24 -7 3 -8
6 -3 6 6 0 18 -6 27 -13z m323 3 c11 -16 1 -19 -13 -3 -7 8 -8 14 -3 14 5 0
13 -5 16 -11z m255 -4 c-7 -9 -15 -13 -19 -10 -3 3 1 10 9 15 21 14 24 12 10
-5z m190 11 c0 -3 -4 -8 -10 -11 -5 -3 -10 -1 -10 4 0 6 5 11 10 11 6 0 10 -2
10 -4z m49 -13 c-7 -10 -14 -19 -15 -21 -1 -2 -4 4 -8 13 -3 9 -2 13 4 10 6
-3 10 -1 10 4 0 6 5 11 11 11 8 0 7 -6 -2 -17z m-1078 -10 c13 -16 12 -17 -3
-4 -17 13 -22 21 -14 21 2 0 10 -8 17 -17z m383 5 c-5 -8 -2 -9 9 -5 19 7 67
-11 67 -26 0 -5 -11 -2 -25 7 -14 9 -30 14 -36 11 -14 -9 -42 3 -34 15 3 5 11
10 16 10 6 0 7 -5 3 -12z m135 -28 c0 -10 -3 -8 -9 5 -12 27 -12 43 0 25 5 -8
9 -22 9 -30z m370 17 c0 -9 -2 -8 -6 1 -2 6 -10 9 -15 6 -7 -4 -8 -2 -4 5 9
13 26 5 25 -12z m37 8 c-8 -8 -18 -15 -22 -15 -3 0 -1 7 6 15 7 8 17 15 22 15
5 0 3 -7 -6 -15z m-1308 -20 c-3 -3 -9 2 -12 12 -6 14 -5 15 5 6 7 -7 10 -15
7 -18z m61 3 c11 -30 6 -34 -14 -14 -12 12 -13 16 -3 16 10 0 9 3 -2 10 -11 7
-11 10 -2 10 7 0 16 -10 21 -22z m292 4 c-7 -2 -18 1 -23 6 -8 8 -4 9 13 5 13
-4 18 -8 10 -11z m214 9 c-3 -5 1 -16 8 -23 11 -11 11 -16 2 -25 -10 -9 -14
-6 -18 15 -5 26 -1 42 9 42 3 0 3 -4 -1 -9z m35 -1 c0 -5 -5 -10 -11 -10 -5 0
-7 5 -4 10 3 6 8 10 11 10 2 0 4 -4 4 -10z m820 2 c0 -11 -35 -52 -44 -52 -4
0 3 13 16 29 25 33 28 35 28 23z m-1499 -27 c10 7 12 -6 3 -29 -3 -9 -10 -14
-15 -11 -4 3 -6 12 -3 19 3 8 1 17 -5 21 -6 3 -11 12 -11 18 0 7 5 4 11 -6 6
-9 14 -15 20 -12z m290 2 c-10 -9 -11 -8 -5 6 3 10 9 15 12 12 3 -3 0 -11 -7
-18z m103 10 c3 3 6 -7 5 -23 0 -28 -1 -28 -11 -6 -6 12 -15 22 -20 22 -5 0
-6 -6 -2 -12 4 -7 3 -9 -1 -5 -5 4 -10 14 -11 22 -2 11 2 12 16 5 9 -5 20 -6
24 -3z m117 -28 c5 -10 4 -16 -5 -16 -6 0 -13 14 -13 31 -1 17 1 24 4 16 3 -8
9 -22 14 -31z m314 1 c3 -14 3 -20 -2 -14 -4 6 -17 16 -28 23 -17 11 -18 12
-1 7 14 -5 17 -2 12 11 -5 12 -4 14 2 8 5 -5 13 -21 17 -35z m445 36 c0 -2 -9
-6 -20 -9 -11 -3 -18 -1 -14 4 5 9 34 13 34 5z m-1043 -21 c0 -8 -4 -12 -9 -9
-5 3 -6 10 -3 15 9 13 12 11 12 -6z m813 -11 c0 -8 -9 -14 -21 -14 -12 0 -19
-5 -16 -12 2 -7 15 -12 28 -10 17 1 20 0 10 -7 -8 -5 -11 -16 -7 -27 4 -11 -4
-6 -18 11 -14 17 -25 34 -26 38 0 5 -6 5 -12 1 -8 -4 -10 -3 -5 2 9 9 13 10
43 13 10 1 14 7 10 17 -3 8 -2 12 4 9 6 -3 10 -13 10 -21z m38 -24 c-2 -17 -5
-15 -14 15 -10 32 -10 35 3 22 8 -8 13 -24 11 -37z m282 13 c0 4 8 -1 18 -10
11 -10 17 -22 14 -26 -2 -5 -14 2 -25 14 -19 21 -22 21 -25 6 -4 -19 -27 -23
-38 -6 -3 6 -1 16 5 22 9 9 11 8 6 -5 -4 -11 -2 -18 4 -18 6 0 11 9 11 20 0
11 -4 20 -10 20 -5 0 -10 5 -10 12 0 6 11 1 25 -12 14 -13 25 -20 25 -17z m43
31 c-7 -3 -9 -13 -6 -22 4 -14 3 -14 -5 -2 -12 16 -7 30 11 29 9 0 9 -2 0 -5z
m37 -2 c0 -5 -7 -17 -15 -28 -10 -12 -14 -14 -13 -4 4 22 28 49 28 32z m150
-2 c0 -5 -4 -10 -10 -10 -5 0 -10 5 -10 10 0 6 5 10 10 10 6 0 10 -4 10 -10z
m-693 -13 c2 -3 -3 -7 -11 -10 -8 -3 -20 0 -26 8 -10 12 -8 13 10 10 13 -2 25
-6 27 -8z m230 -8 c2 -16 -1 -19 -9 -11 -5 5 -7 15 -4 21 10 15 12 14 13 -10z
m439 -1 l19 -21 -27 18 c-29 18 -34 25 -20 25 5 0 17 -10 28 -22z m-1603 -60
c9 -6 9 -8 0 -8 -7 0 -13 -11 -13 -25 0 -25 23 -35 35 -15 3 6 1 10 -5 10 -6
0 -8 5 -4 11 5 8 9 8 14 -1 4 -7 14 -9 21 -5 8 4 1 -4 -15 -17 -28 -24 -28
-25 -12 -49 9 -14 13 -29 9 -32 -3 -4 -1 -7 5 -7 5 0 12 6 15 13 3 9 7 9 19 0
8 -7 19 -9 24 -5 4 4 2 -2 -6 -12 -14 -17 -15 -18 -18 -2 -3 13 -7 15 -17 6
-18 -15 -35 -4 -35 21 0 20 -15 26 -25 9 -3 -5 -1 -10 4 -10 6 0 11 -8 11 -17
0 -16 -2 -16 -11 -3 -8 11 -10 5 -6 -25 2 -22 0 -51 -4 -65 -4 -14 -7 49 -6
140 0 91 2 149 4 130 3 -19 10 -38 16 -42z m13 44 c1 -9 5 -26 8 -37 7 -20 7
-20 -5 -1 -12 20 -22 73 -11 62 3 -4 7 -14 8 -24z m97 -7 c2 -16 9 -31 17 -33
9 -3 10 0 4 9 -8 14 14 0 44 -29 8 -7 18 -10 23 -7 5 4 9 -4 9 -17 -1 -21 -2
-21 -11 -5 -6 9 -14 15 -19 12 -4 -3 -11 2 -14 11 -3 8 -11 12 -16 9 -6 -4
-17 -1 -25 5 -12 10 -19 10 -32 -1 -15 -13 -15 -12 -3 11 8 14 13 36 11 50 -2
14 -1 23 2 20 3 -3 7 -19 10 -35z m474 13 c1 -52 3 -57 20 -51 11 4 14 3 9 -5
-12 -19 -36 -14 -36 8 0 11 -4 20 -10 20 -5 0 -10 -5 -10 -12 0 -6 -3 -8 -7
-4 -5 4 0 14 10 21 10 7 17 17 16 21 -2 12 0 24 5 24 2 0 3 -10 3 -22z m47 6
c3 -8 2 -12 -4 -9 -6 3 -10 10 -10 16 0 14 7 11 14 -7z m139 -5 c-4 -15 -8
-17 -14 -8 -6 11 4 28 18 29 0 0 -1 -9 -4 -21z m890 7 c17 8 -25 -26 -45 -37
-11 -6 -18 -6 -18 -1 0 6 9 12 20 15 11 3 20 13 21 24 0 10 3 13 6 5 2 -6 10
-10 16 -6z m-1502 -19 c-13 -13 -26 -3 -16 12 3 6 11 8 17 5 6 -4 6 -10 -1
-17z m41 1 c-7 -7 -12 -8 -12 -2 0 6 3 14 7 17 3 4 9 5 12 2 2 -3 -1 -11 -7
-17z m128 12 c0 -5 -4 -10 -9 -10 -6 0 -13 5 -16 10 -3 6 1 10 9 10 9 0 16 -4
16 -10z m41 -20 c19 0 36 -25 31 -45 -6 -19 -6 -19 -11 2 -4 16 -10 20 -20 14
-11 -7 -9 -13 10 -32 15 -15 17 -20 6 -16 -9 3 -19 2 -22 -3 -3 -5 3 -10 12
-12 10 -3 -2 -5 -27 -6 l-45 -1 33 14 c30 13 32 16 20 37 -7 13 -17 27 -23 31
-5 4 4 5 20 1 l30 -6 -22 16 c-13 10 -23 23 -23 29 0 7 5 4 11 -5 5 -10 14
-18 20 -18z m94 21 c3 -5 2 -12 -3 -15 -5 -3 -9 1 -9 9 0 17 3 19 12 6z m200
0 c3 -5 2 -12 -3 -15 -5 -3 -9 1 -9 9 0 17 3 19 12 6z m164 -5 c9 -10 8 -15
-2 -19 -8 -3 -13 3 -14 14 -2 23 1 24 16 5z m-594 -6 c3 -5 1 -10 -4 -10 -6 0
-11 5 -11 10 0 6 2 10 4 10 3 0 8 -4 11 -10z m22 -12 c-3 -8 -6 -5 -6 6 -1 11
2 17 5 13 3 -3 4 -12 1 -19z m686 7 c-3 -9 -8 -14 -10 -11 -3 3 -2 9 2 15 9
16 15 13 8 -4z m320 -5 c9 -11 14 -20 11 -20 -3 0 -17 9 -31 20 -15 12 -20 20
-12 20 8 0 22 -9 32 -20z m-639 2 c3 -5 -1 -9 -9 -9 -8 0 -12 4 -9 9 3 4 7 8
9 8 2 0 6 -4 9 -8z m99 -6 c3 -8 0 -17 -7 -19 -10 -4 -12 1 -9 14 6 23 9 24
16 5z m274 -2 c5 -13 8 -13 15 -2 8 10 9 9 5 -4 -3 -9 -2 -18 3 -20 5 -2 2
-12 -7 -23 -15 -20 -15 -20 -10 2 3 13 -3 30 -15 42 -10 12 -14 21 -8 21 6 0
13 -7 17 -16z m-486 -13 c-8 -15 -7 -20 6 -25 9 -4 13 -9 10 -12 -3 -3 -23 6
-44 20 -24 17 -31 26 -20 26 9 0 17 -5 17 -12 0 -8 6 -6 17 5 22 22 26 22 14
-2z m179 15 c0 -2 -7 -7 -16 -10 -8 -3 -12 -2 -9 4 6 10 25 14 25 6z m105 -5
c3 -5 1 -12 -5 -16 -5 -3 -10 1 -10 9 0 18 6 21 15 7z m370 -19 c-6 -7 -34 11
-29 19 3 5 11 3 19 -4 7 -6 12 -13 10 -15z m38 11 c-7 -3 -9 -11 -6 -19 3 -8
1 -14 -5 -14 -6 0 -9 8 -7 18 2 9 4 21 4 25 1 5 6 5 13 1 9 -6 9 -9 1 -11z
m372 7 c-3 -5 -12 -10 -18 -10 -7 0 -6 4 3 10 19 12 23 12 15 0z m-1528 -22
c-3 -8 -6 -5 -6 6 -1 11 2 17 5 13 3 -3 4 -12 1 -19z m850 15 c-4 -3 0 -15 10
-25 13 -15 14 -22 4 -40 l-11 -23 6 23 c3 13 -1 28 -10 38 -15 14 -14 34 1 34
4 0 3 -3 0 -7z m84 -10 c10 -11 10 -14 2 -9 -7 4 -13 2 -13 -3 0 -6 -5 -11
-11 -11 -8 0 -8 4 0 14 9 11 9 15 -1 19 -8 3 -8 6 -2 6 6 1 18 -7 25 -16z
m268 -6 c0 -9 -2 -8 -6 1 -2 6 -10 9 -15 6 -7 -4 -8 -2 -4 5 9 13 26 5 25 -12z
m146 13 c-3 -5 -1 -10 5 -10 6 0 8 -5 4 -12 -6 -9 -9 -9 -12 0 -2 7 -9 9 -15
5 -7 -4 -6 1 2 10 15 18 26 23 16 7z m143 -12 c18 -1 32 -3 32 -4 0 -1 -11 -9
-25 -18 -14 -9 -25 -13 -24 -9 4 22 -3 24 -23 7 -19 -15 -20 -16 -9 -1 11 14
11 20 0 35 -12 15 -12 16 2 5 8 -7 30 -13 47 -15z m-1263 3 c3 -5 2 -12 -3
-15 -5 -3 -9 1 -9 9 0 17 3 19 12 6z m660 -1 c3 -6 -1 -7 -9 -4 -18 7 -21 14
-7 14 6 0 13 -4 16 -10z m398 -13 c12 21 12 19 12 -17 0 -22 -3 -40 -7 -40 -5
0 -7 5 -5 11 1 6 -4 14 -11 16 -8 3 -10 -1 -5 -14 3 -10 3 -15 -1 -11 -5 4
-10 24 -12 45 -4 34 -3 36 7 13 l10 -25 12 22z m-1017 1 c4 -7 3 -8 -4 -4 -7
4 -12 3 -12 -3 0 -6 -10 -16 -22 -22 -22 -12 -22 -11 2 14 29 31 27 30 36 15z
m481 -30 c-3 -7 -5 -2 -5 12 0 14 2 19 5 13 2 -7 2 -19 0 -25z m43 28 c0 -11
-19 -15 -25 -6 -3 5 1 10 9 10 9 0 16 -2 16 -4z m280 -17 c0 -6 -4 -7 -10 -4
-5 3 -10 11 -10 16 0 6 5 7 10 4 6 -3 10 -11 10 -16z m164 6 c3 -8 1 -15 -4
-15 -6 0 -10 7 -10 15 0 8 2 15 4 15 2 0 6 -7 10 -15z m-1172 -24 c2 -17 1
-28 -3 -25 -4 2 -9 -1 -11 -7 -2 -7 -9 -5 -17 5 -12 14 -12 16 3 10 12 -5 17
-2 16 7 -3 19 -1 39 4 39 2 0 6 -13 8 -29z m135 14 c0 -8 -5 -11 -10 -8 -5 3
-7 0 -5 -8 3 -8 11 -13 17 -11 7 1 9 -3 6 -9 -11 -16 -39 16 -32 35 8 20 24
21 24 1z m407 -6 c-3 -5 -10 -7 -15 -3 -5 3 -7 10 -3 15 3 5 10 7 15 3 5 -3 7
-10 3 -15z m308 6 c11 2 15 -2 11 -11 -3 -9 2 -14 13 -15 14 0 15 -2 5 -6 -8
-3 -20 2 -28 13 -12 17 -13 16 -13 -6 0 -29 -5 -24 -14 15 -4 17 -3 25 1 19 4
-6 16 -10 25 -9z m217 -7 c8 -12 8 -19 -1 -24 -7 -5 -8 -3 -3 6 5 9 2 10 -13
6 -12 -4 -23 -2 -28 5 -5 9 -2 10 12 6 18 -7 18 -7 0 7 -18 14 -18 15 2 13 11
0 25 -9 31 -19z m-832 6 c-3 -3 -12 -4 -19 -1 -8 3 -5 6 6 6 11 1 17 -2 13 -5z
m270 -16 c-3 -8 -6 -5 -6 6 -1 11 2 17 5 13 3 -3 4 -12 1 -19z m78 3 c-3 -6
-14 -10 -23 -10 -15 1 -15 2 1 6 9 2 17 9 17 15 0 6 3 9 6 5 3 -3 3 -10 -1
-16z m200 9 c-3 -5 -11 -10 -16 -10 -6 0 -7 5 -4 10 3 6 11 10 16 10 6 0 7 -4
4 -10z m360 0 c-3 -5 2 -10 11 -10 10 0 15 -3 11 -6 -10 -10 -39 5 -32 16 3 5
8 10 11 10 3 0 2 -4 -1 -10z m147 -1 c2 -2 1 -3 -1 -2 -2 1 -12 -2 -22 -8 -14
-7 -17 -6 -13 5 5 13 29 16 36 5z m-932 -9 c0 -5 -5 -10 -11 -10 -5 0 -7 5 -4
10 3 6 8 10 11 10 2 0 4 -4 4 -10z m560 -5 c0 -8 -4 -15 -10 -15 -5 0 -7 7 -4
15 4 8 8 15 10 15 2 0 4 -7 4 -15z m437 1 c12 0 20 -3 17 -7 -3 -5 -15 -7 -27
-5 -12 3 -25 5 -29 5 -5 1 -8 6 -8 12 0 7 4 8 13 2 6 -5 22 -8 34 -7z m-1284
-2 c9 -9 -4 -34 -18 -34 -7 0 -16 7 -19 16 -5 14 -4 15 8 5 9 -7 17 -8 20 -2
3 5 0 12 -6 14 -7 3 -8 6 -2 6 6 1 13 -2 17 -5z m560 -7 c4 3 7 2 7 -4 0 -6
-9 -13 -20 -16 -13 -3 -20 -14 -21 -29 0 -21 -1 -22 -8 -3 -6 13 -4 23 5 28 8
4 10 15 7 25 -6 14 -4 15 9 5 8 -7 18 -10 21 -6z m-683 -7 c0 -5 -5 -10 -11
-10 -5 0 -7 5 -4 10 3 6 8 10 11 10 2 0 4 -4 4 -10z m376 -2 c4 -6 3 -8 -3 -5
-6 4 -16 0 -23 -8 -10 -12 -10 -15 0 -15 10 0 10 -3 0 -15 -17 -20 -36 -19
-45 3 -5 14 -4 15 6 5 7 -7 17 -13 23 -13 6 0 6 4 -1 11 -8 8 -6 16 6 29 19
22 27 24 37 8z m354 2 c-18 -12 -30 -13 -30 -2 0 4 10 9 22 9 18 2 20 0 8 -7z
m80 -2 c0 -4 -4 -8 -9 -8 -6 0 -12 4 -15 8 -3 5 1 9 9 9 8 0 15 -4 15 -9z
m365 3 c-3 -5 2 -17 11 -25 19 -19 6 -21 -18 -2 -13 10 -15 15 -6 24 14 14 21
16 13 3z m165 5 c0 -2 -7 -7 -16 -10 -8 -3 -12 -2 -9 4 6 10 25 14 25 6z
m-1188 -22 c-5 -9 -7 -25 -5 -35 3 -11 1 -19 -3 -19 -14 0 -14 54 -1 62 18 11
19 10 9 -8z m73 -1 c-2 -30 -31 -77 -39 -64 -4 6 -2 11 3 11 6 0 11 4 11 10 0
5 -7 6 -17 3 -11 -4 -14 -3 -9 6 5 7 14 10 22 7 10 -4 14 2 14 19 0 14 4 25 8
25 5 0 8 -8 7 -17z m267 0 c12 -15 11 -15 -11 -3 -21 11 -26 10 -39 -6 -14
-18 -14 -18 -8 0 5 14 2 17 -9 12 -9 -3 -14 -2 -11 3 9 14 64 10 78 -6z m103
7 c3 -5 1 -10 -4 -10 -6 0 -11 5 -11 10 0 6 2 10 4 10 3 0 8 -4 11 -10z m499
1 c3 -5 -2 -15 -12 -22 -15 -12 -16 -12 -5 2 7 9 10 19 6 22 -3 4 -4 7 0 7 3
0 8 -4 11 -9z m38 -13 c-7 -7 -12 -8 -12 -2 0 6 3 14 7 17 3 4 9 5 12 2 2 -3
-1 -11 -7 -17z m88 12 c0 -5 -5 -10 -11 -10 -5 0 -7 5 -4 10 3 6 8 10 11 10 2
0 4 -4 4 -10z m-948 -7 c-6 -2 -9 -10 -6 -15 4 -7 2 -8 -5 -4 -13 9 -5 26 12
25 9 0 8 -2 -1 -6z m300 -11 c3 -11 0 -19 -8 -19 -15 0 -19 19 -7 30 9 10 10
9 15 -11z m154 -14 c-9 -12 -16 -19 -16 -15 0 11 24 47 28 42 2 -2 -3 -14 -12
-27z m114 12 c-24 -15 -36 -11 -14 4 10 8 21 12 24 10 2 -3 -2 -9 -10 -14z
m62 8 c-18 -18 -15 -27 8 -23 11 2 18 0 15 -6 -4 -5 -1 -9 6 -9 7 0 9 -3 6 -6
-4 -4 -13 -1 -22 6 -13 10 -15 9 -15 -8 0 -26 -18 -38 -33 -23 -8 8 -8 14 2
24 10 10 11 9 6 -5 -4 -11 -2 -18 4 -18 6 0 11 10 11 21 0 16 -5 20 -20 16
-11 -3 -20 -1 -20 4 0 5 6 9 14 9 7 0 19 7 26 15 7 8 15 15 18 15 3 0 1 -5 -6
-12z m43 1 c11 -16 1 -19 -13 -3 -7 8 -8 14 -3 14 5 0 13 -5 16 -11z m28 -31
c-3 -16 -9 -28 -14 -28 -5 0 -4 12 1 26 6 14 7 31 4 37 -5 8 -4 9 4 2 6 -5 8
-22 5 -37z m274 27 c0 -8 -4 -12 -9 -9 -5 3 -6 10 -3 15 9 13 12 11 12 -6z
m-1232 -5 c3 -5 1 -10 -4 -10 -6 0 -11 5 -11 10 0 6 2 10 4 10 3 0 8 -4 11
-10z m45 -5 c-7 -9 -15 -13 -19 -10 -3 3 1 10 9 15 21 14 24 12 10 -5z m726 0
c-3 -10 1 -15 12 -16 10 0 12 -3 4 -6 -6 -2 -10 -10 -6 -16 3 -7 -1 -4 -10 6
-13 17 -12 47 1 47 3 0 3 -7 -1 -15z m-703 -10 c-3 -9 -8 -14 -10 -11 -3 3 -2
9 2 15 9 16 15 13 8 -4z m32 -4 c-3 -6 -11 -11 -17 -11 -6 0 -6 6 2 15 14 17
26 13 15 -4z m499 7 c-3 -4 -9 -8 -15 -8 -5 0 -9 4 -9 8 0 5 7 9 15 9 8 0 12
-4 9 -9z m-237 -5 c-4 -3 -2 -12 5 -20 8 -11 7 -12 -6 -7 -26 10 -18 -10 10
-23 21 -10 28 -9 43 6 12 12 23 16 32 10 11 -7 10 -9 -3 -9 -9 0 -21 -6 -25
-14 -13 -22 -36 -23 -57 -2 l-21 21 -9 -28 c-6 -15 -14 -27 -18 -27 -5 0 -4 9
2 20 6 11 8 20 5 20 -4 0 3 14 15 30 12 17 24 30 27 30 4 0 3 -3 0 -7z m863
-18 c0 -12 -19 -12 -23 0 -4 9 -1 12 9 8 7 -3 14 -7 14 -8z m-656 -3 c2 -4 -4
-8 -14 -8 -10 0 -16 4 -14 8 3 4 9 8 14 8 5 0 11 -4 14 -8z m93 -14 c2 -16 0
-19 -6 -9 -6 10 -10 10 -16 1 -4 -6 -5 -14 -1 -17 3 -3 -1 -12 -9 -20 -13 -12
-18 -12 -37 1 -12 9 -17 16 -11 16 7 0 15 -5 18 -10 4 -6 11 -8 16 -4 5 3 7 9
4 14 -3 5 -1 11 5 15 6 4 7 11 4 17 -4 7 -2 8 4 4 7 -4 12 -2 12 3 0 21 16 11
17 -11z m323 1 c0 -6 -4 -7 -10 -4 -5 3 -10 11 -10 16 0 6 5 7 10 4 6 -3 10
-11 10 -16z m35 11 c-3 -5 -10 -10 -16 -10 -5 0 -9 5 -9 10 0 6 7 10 16 10 8
0 12 -4 9 -10z m150 -23 c-9 -5 -19 -6 -22 -3 -4 3 0 6 7 6 9 0 7 5 -6 15 -18
14 -17 14 9 3 24 -10 25 -13 12 -21z m-1082 3 c4 0 6 4 3 9 -3 4 6 6 19 3 l25
-4 -25 -20 c-13 -10 -22 -25 -19 -32 3 -8 1 -17 -5 -20 -12 -8 -10 37 2 45 5
4 0 10 -12 14 -11 3 -21 11 -21 18 0 8 3 8 12 -1 7 -7 16 -12 21 -12z m143 8
c4 -7 4 -10 -1 -6 -4 4 -14 3 -22 -4 -11 -8 -12 -7 -7 6 7 19 20 21 30 4z
m258 4 c3 -5 -1 -9 -9 -9 -8 0 -15 4 -15 9 0 4 4 8 9 8 6 0 12 -4 15 -8z m97
-15 c-10 -9 -11 -8 -5 6 3 10 9 15 12 12 3 -3 0 -11 -7 -18z m104 13 c-3 -5
-2 -10 3 -10 13 0 7 -44 -7 -46 -6 -1 -7 0 -2 2 6 4 7 14 0 30 -11 32 -11 34
2 34 5 0 7 -4 4 -10z m70 0 c7 -12 -12 -40 -26 -40 -5 0 -9 5 -9 11 0 5 4 8 9
4 5 -3 13 0 17 6 3 6 0 15 -7 20 -9 6 -10 9 -2 9 6 0 15 -5 18 -10z m300 0
c-3 -5 -14 -10 -23 -10 -15 0 -15 2 -2 10 20 13 33 13 25 0z m-1030 -10 c-3
-5 -1 -18 5 -29 7 -14 7 -22 -2 -27 -7 -4 -8 -3 -4 4 4 7 1 12 -8 12 -8 0 -17
-6 -19 -12 -4 -10 -6 -10 -6 0 -1 7 6 15 14 18 8 4 12 10 9 15 -5 9 3 29 12
29 3 0 2 -4 -1 -10z m889 -5 c-4 -8 -10 -12 -15 -9 -11 6 -2 24 11 24 5 0 7
-7 4 -15z m-399 -16 c-4 -5 -1 -9 4 -9 6 0 11 -5 11 -12 0 -9 -3 -9 -12 0 -14
14 -20 44 -7 36 5 -3 7 -10 4 -15z m268 6 c-3 -9 -8 -14 -10 -11 -3 3 -2 9 2
15 9 16 15 13 8 -4z m437 8 c-8 -3 -22 -11 -30 -17 -13 -10 -13 -9 -1 7 7 9
21 17 30 16 13 0 14 -1 1 -6z m-1242 -35 c-2 -22 1 -32 10 -30 14 2 16 -14 2
-23 -5 -3 -10 -1 -10 5 0 6 -4 9 -9 6 -7 -5 -8 18 -3 62 4 28 13 9 10 -20z
m309 13 c0 -11 -6 -17 -14 -14 -7 3 -13 0 -13 -7 0 -6 -4 -8 -10 -5 -5 3 -10
2 -10 -2 0 -5 -9 -9 -20 -9 -28 0 -25 5 10 17 17 6 30 15 30 21 0 5 5 6 10 3
6 -3 10 -1 10 4 0 6 2 11 4 11 3 0 4 -9 3 -19z m177 3 c5 -13 4 -14 -7 -6 -8
7 -18 8 -22 4 -5 -4 -5 -1 -1 6 10 17 23 15 30 -4z m91 5 c11 -16 1 -19 -13
-3 -7 8 -8 14 -3 14 5 0 13 -5 16 -11z m505 -15 c0 -8 -4 -14 -10 -14 -5 0 -6
7 -3 17 5 12 3 14 -7 8 -9 -5 -11 -4 -6 4 9 14 26 5 26 -15z m-916 1 c3 -8 1
-15 -4 -15 -6 0 -10 7 -10 15 0 8 2 15 4 15 2 0 6 -7 10 -15z m80 3 c-3 -4 -9
-8 -15 -8 -5 0 -9 4 -9 8 0 5 7 9 15 9 8 0 12 -4 9 -9z m446 9 c0 -2 -10 -12
-21 -23 -22 -19 -22 -19 -8 4 12 19 29 30 29 19z m150 -1 c0 -3 -4 -8 -10 -11
-5 -3 -10 -1 -10 4 0 6 5 11 10 11 6 0 10 -2 10 -4z m75 -5 c6 -1 4 -5 -4 -10
-15 -10 -41 -4 -41 9 0 5 8 7 18 5 9 -2 22 -4 27 -4z m-945 -5 c0 -3 -4 -8
-10 -11 -5 -3 -10 -1 -10 4 0 6 5 11 10 11 6 0 10 -2 10 -4z m451 -29 c-10 -9
-11 -8 -5 6 3 10 9 15 12 12 3 -3 0 -11 -7 -18z m32 8 c-3 -9 -8 -14 -10 -11
-3 3 -2 9 2 15 9 16 15 13 8 -4z m63 6 c-3 -5 1 -14 9 -21 11 -9 12 -16 2 -31
-14 -23 -40 -25 -60 -4 -13 13 -17 13 -27 0 -7 -8 -17 -13 -23 -12 -7 1 -11
-5 -9 -13 3 -12 1 -12 -9 -3 -9 9 -8 16 6 30 10 10 23 18 29 19 6 0 17 2 24 2
8 1 10 7 6 15 -4 7 -3 8 2 4 5 -5 9 -16 9 -24 0 -22 31 -25 47 -5 11 13 10 15
-4 9 -10 -3 -20 -2 -23 3 -4 6 -1 10 4 10 6 0 10 3 10 8 -2 12 1 22 7 22 3 0
3 -4 0 -9z m338 0 c3 -5 -1 -11 -9 -15 -8 -3 -17 0 -21 6 -4 7 -3 8 4 4 7 -4
12 -2 12 3 0 13 7 14 14 2z m119 -4 c21 13 33 11 45 -8 8 -12 8 -19 2 -19 -5
0 -10 4 -10 9 0 6 -9 9 -20 8 -23 -1 -23 -2 -10 -27 8 -16 8 -18 -5 -14 -8 3
-12 10 -9 15 3 5 0 9 -5 9 -6 0 -11 -4 -11 -10 0 -5 -5 -10 -11 -10 -6 0 -7 5
-2 13 8 12 8 15 13 40 1 9 3 9 7 -1 2 -6 10 -9 16 -5z m72 3 c3 -5 2 -10 -4
-10 -5 0 -13 5 -16 10 -3 6 -2 10 4 10 5 0 13 -4 16 -10z m-905 -10 c0 -5 -2
-10 -4 -10 -3 0 -8 5 -11 10 -3 6 -1 10 4 10 6 0 11 -4 11 -10z m70 1 c0 -13
-39 -21 -47 -9 -3 6 -2 8 3 5 6 -3 16 -2 24 4 19 11 20 11 20 0z m184 -6 c-4
-8 -8 -15 -10 -15 -2 0 -4 7 -4 15 0 8 4 15 10 15 5 0 7 -7 4 -15z m213 9 c-3
-3 -12 -4 -19 -1 -8 3 -5 6 6 6 11 1 17 -2 13 -5z m160 -14 c-3 -11 0 -23 5
-26 7 -4 4 -11 -6 -16 -19 -11 -37 -1 -21 10 6 4 10 13 11 20 2 25 4 32 10 32
4 0 4 -9 1 -20z m393 16 c0 -3 -4 -8 -10 -11 -5 -3 -10 -1 -10 4 0 6 5 11 10
11 6 0 10 -2 10 -4z m-1204 -41 c-4 -14 -11 -23 -16 -20 -6 3 -10 -1 -10 -9 0
-9 6 -16 14 -16 20 0 29 -17 15 -26 -8 -4 -9 -3 -5 4 4 7 1 12 -8 12 -28 0
-17 -20 15 -27 19 -3 26 -9 19 -13 -7 -4 -20 -5 -30 -3 -14 4 -20 -2 -23 -24
-2 -15 -5 5 -6 45 -1 58 2 72 14 72 9 0 15 9 15 22 0 12 3 19 6 15 4 -3 3 -18
0 -32z m364 20 c0 -8 5 -15 11 -15 6 0 9 7 6 14 -4 10 -1 13 9 9 11 -4 12 -9
3 -19 -8 -10 -6 -16 9 -25 19 -12 19 -14 4 -27 -16 -13 -16 -13 0 -8 12 3 15
1 11 -10 -3 -7 -9 -14 -13 -14 -15 0 -22 21 -11 34 8 9 3 19 -19 38 -16 14
-32 23 -35 20 -3 -3 -5 0 -5 6 0 7 7 12 15 12 8 0 15 -7 15 -15z m773 -4 c3
-14 -4 -23 -29 -35 -19 -8 -34 -12 -34 -7 0 5 11 12 25 15 16 4 25 13 25 26 0
25 6 26 13 1z m-1047 0 c-4 -5 0 -12 6 -15 8 -4 9 -8 3 -11 -29 -15 -37 -24
-30 -34 4 -7 12 -8 19 -4 7 4 3 0 -7 -9 -11 -10 -29 -17 -41 -17 -20 2 -20 2
2 6 26 5 28 16 7 33 -12 10 -15 9 -16 -6 0 -15 -2 -14 -10 5 -5 13 -7 26 -4
29 3 3 5 1 5 -5 0 -9 16 -10 53 -4 5 0 5 10 2 21 -4 12 -2 20 5 20 6 0 9 -4 6
-9z m227 -10 c-3 -13 1 -21 14 -24 16 -5 15 -5 -2 -4 -11 1 -26 -2 -33 -7 -10
-6 -9 0 2 23 19 35 27 40 19 12z m600 -1 c-3 -11 -7 -20 -9 -20 -2 0 -4 9 -4
20 0 11 4 20 9 20 5 0 7 -9 4 -20z m-746 4 c-3 -3 -12 -4 -19 -1 -8 3 -5 6 6
6 11 1 17 -2 13 -5z m100 -10 c3 -8 1 -20 -5 -26 -9 -9 -10 -6 -7 10 3 19 1
21 -23 16 -21 -4 -24 -3 -12 5 21 15 40 13 47 -5z m354 3 c-6 -8 -7 -18 -3
-22 4 -5 2 -5 -5 -1 -6 3 -14 2 -18 -4 -3 -5 -11 -10 -17 -10 -6 0 0 11 13 24
26 25 49 35 30 13z m59 7 c0 -8 -19 -13 -24 -6 -3 5 1 9 9 9 8 0 15 -2 15 -3z
m178 -11 c-6 -7 -14 -10 -19 -7 -15 9 -10 20 10 20 15 0 17 -3 9 -13z m98 -8
c1 -7 -5 -16 -14 -20 -9 -3 -13 -3 -9 1 4 4 2 13 -5 21 -9 11 -7 12 7 7 14 -6
16 -4 10 7 -5 8 -4 11 0 6 5 -4 10 -14 11 -22z m-523 8 c-7 -2 -19 -2 -25 0
-7 3 -2 5 12 5 14 0 19 -2 13 -5z m331 -8 c-4 -8 -11 -12 -16 -9 -6 4 -5 10 3
15 19 12 19 11 13 -6z m-619 -5 c-3 -5 -11 -10 -16 -10 -6 0 -7 5 -4 10 3 6
11 10 16 10 6 0 7 -4 4 -10z m55 6 c0 -2 -7 -7 -16 -10 -8 -3 -12 -2 -9 4 6
10 25 14 25 6z m26 -31 c1 -8 -3 -18 -8 -22 -7 -3 -8 -1 -4 5 4 7 3 12 -2 12
-16 0 -22 -13 -12 -25 7 -9 3 -17 -15 -29 -22 -14 -25 -15 -25 -1 0 8 3 14 8
14 20 -3 33 2 27 11 -4 6 -10 8 -14 6 -4 -3 -8 1 -8 9 0 8 3 13 6 13 16 -3 40
15 34 26 -3 6 -2 7 2 3 5 -4 10 -14 11 -22z m149 16 c3 -5 0 -13 -6 -17 -7 -4
-9 -3 -5 4 3 5 0 13 -6 15 -9 4 -10 6 -1 6 6 1 14 -3 18 -8z m305 -7 c0 -2 -7
-4 -15 -4 -8 0 -15 4 -15 10 0 5 7 7 15 4 8 -4 15 -8 15 -10z m380 2 c0 -8 -4
-17 -8 -20 -4 -2 -8 4 -8 15 0 10 4 19 8 19 4 0 8 -6 8 -14z m-550 -12 c0 -2
-7 -4 -15 -4 -8 0 -15 4 -15 10 0 5 7 7 15 4 8 -4 15 -8 15 -10z m306 0 c-4
-9 -2 -22 3 -28 7 -8 4 -12 -10 -13 -16 -2 -19 2 -14 15 4 9 8 23 8 30 0 6 5
12 10 12 5 0 6 -7 3 -16z m69 6 c-4 -6 -11 -8 -16 -5 -5 3 -6 -2 -3 -12 4 -14
4 -15 -4 -4 -5 7 -16 17 -23 22 -10 6 -3 9 19 9 20 0 31 -4 27 -10z m14 -17
c-12 -15 -12 -16 3 -10 10 3 20 1 24 -5 4 -7 3 -8 -4 -4 -7 4 -12 3 -12 -2 0
-5 -7 -9 -15 -9 -8 0 -15 4 -15 9 0 12 24 48 29 43 2 -3 -2 -12 -10 -22z
m-348 -6 c-10 -9 -11 -8 -5 6 3 10 9 15 12 12 3 -3 0 -11 -7 -18z m94 13 c3
-5 1 -10 -4 -10 -6 0 -11 5 -11 10 0 6 2 10 4 10 3 0 8 -4 11 -10z m-384 -35
c5 -7 0 -11 -15 -11 -20 0 -21 3 -12 23 6 12 13 17 15 10 2 -7 7 -17 12 -22z
m33 20 c-4 -8 -11 -15 -16 -15 -6 0 -5 6 2 15 7 8 14 15 16 15 2 0 1 -7 -2
-15z m59 1 c4 -10 0 -12 -14 -9 -10 3 -19 0 -19 -6 0 -6 -6 -11 -12 -11 -7 1
-2 10 11 20 28 24 27 24 34 6z m334 8 c-3 -3 -12 -4 -19 -1 -8 3 -5 6 6 6 11
1 17 -2 13 -5z m56 -29 c14 -19 15 -29 7 -44 -14 -27 -13 -41 4 -41 8 0 17 -4
20 -9 8 -12 -27 -8 -37 4 -5 6 -6 -3 -3 -20 6 -26 5 -27 -5 -10 -6 11 -21 28
-33 37 -23 19 -15 24 14 8 14 -8 19 -5 24 12 3 12 0 26 -7 31 -8 6 -6 7 6 3
24 -8 21 3 -10 37 -16 15 -21 26 -13 22 8 -3 23 -17 33 -30z m-610 18 c3 -5
-5 -8 -18 -8 -13 0 -21 3 -18 8 2 4 10 7 18 7 8 0 16 -3 18 -7z m334 1 c-3 -3
-12 -4 -19 -1 -8 3 -5 6 6 6 11 1 17 -2 13 -5z m134 -25 c-9 -22 -10 -22 -10
-3 -1 11 2 24 6 27 12 12 14 0 4 -24z m-113 -36 c-9 -8 -21 -12 -27 -8 -16 9
-2 28 15 21 8 -3 14 1 14 9 0 9 -10 15 -22 16 -22 0 -22 1 -3 8 28 12 45 -23
23 -46z m50 44 c14 4 14 3 2 -5 -16 -12 -30 -7 -29 11 0 9 2 9 5 0 3 -7 13 -9
22 -6z m132 9 c0 -3 -4 -8 -10 -11 -5 -3 -10 -1 -10 4 0 6 5 11 10 11 6 0 10
-2 10 -4z m104 -12 c5 -14 4 -15 -9 -4 -17 14 -19 20 -6 20 5 0 12 -7 15 -16z
m-54 -10 c0 -2 -11 -3 -24 -2 -14 1 -23 5 -20 9 4 7 44 0 44 -7z m140 0 c0 -8
-4 -12 -10 -9 -5 3 -10 2 -10 -4 0 -5 6 -12 13 -14 6 -3 1 -6 -12 -6 -20 -1
-21 -3 -11 -16 13 -16 40 -21 40 -7 0 4 14 13 30 19 17 6 30 10 30 8 0 -9 -74
-45 -88 -43 -10 2 -16 -3 -14 -10 1 -8 -2 -11 -7 -7 -6 3 -8 12 -5 19 3 8 -5
24 -18 36 l-23 22 23 -11 c20 -11 27 -9 20 4 -3 3 32 34 40 35 1 0 2 -7 2 -16z
m140 11 c0 -2 -13 -11 -29 -20 -22 -11 -32 -12 -37 -3 -4 6 -3 9 2 5 5 -3 20
1 34 9 29 15 30 16 30 9z m-859 -41 c-4 -16 -12 -28 -17 -27 -5 1 -8 -4 -8
-12 1 -11 -2 -11 -18 -2 -15 10 -16 13 -3 15 8 2 22 17 31 34 19 36 26 33 15
-8z m167 10 c13 5 12 2 -3 -10 -20 -16 -20 -16 3 -11 13 3 22 0 22 -7 0 -7
-16 -11 -39 -11 -22 0 -37 3 -35 7 3 5 -1 8 -9 8 -8 0 -17 6 -20 14 -4 10 0
12 14 9 10 -3 19 -9 19 -14 0 -23 20 -6 21 19 1 18 3 21 6 9 3 -12 11 -16 21
-13z m62 19 c0 -5 -5 -15 -10 -23 -8 -12 -10 -11 -10 8 0 12 5 22 10 22 6 0
10 -3 10 -7z m28 -18 c-3 -3 -9 2 -12 12 -6 14 -5 15 5 6 7 -7 10 -15 7 -18z
m245 19 c8 -8 -3 -34 -15 -34 -6 0 -6 6 1 14 9 11 9 15 -1 19 -7 3 -8 6 -2 6
6 1 13 -2 17 -5z m-538 -24 c-20 -22 -35 -26 -35 -9 0 5 4 8 9 5 5 -3 14 1 21
9 7 8 15 15 18 15 3 0 -3 -9 -13 -20z m476 -3 c1 -12 1 -26 0 -30 -1 -5 13
-23 31 -39 18 -17 25 -25 16 -19 -9 7 -23 9 -30 5 -7 -4 -10 -3 -5 1 4 5 0 16
-8 25 -9 10 -15 21 -14 26 6 32 -2 42 -28 38 -16 -3 -23 -1 -16 4 26 17 53 11
54 -11z m123 -2 c3 -8 1 -15 -4 -15 -6 0 -10 5 -10 11 0 8 -6 7 -17 -2 -16
-13 -17 -12 -4 4 17 21 27 22 35 2z m181 5 c3 -5 1 -10 -4 -10 -6 0 -11 5 -11
10 0 6 2 10 4 10 3 0 8 -4 11 -10z m-860 -30 c3 -11 14 -20 22 -20 9 0 14 -2
11 -5 -3 -4 -18 -3 -33 1 -20 5 -23 9 -13 15 10 6 10 9 1 9 -7 0 -13 5 -13 10
0 18 18 11 25 -10z m389 4 c10 -25 -1 -29 -14 -5 -6 12 -7 21 -1 21 5 0 12 -7
15 -16z m37 -22 c-10 -3 -7 -8 10 -18 17 -9 19 -13 8 -14 -9 0 -22 7 -30 16
-10 13 -10 17 2 25 10 6 10 9 2 9 -7 0 -13 5 -13 12 0 7 7 5 18 -6 14 -15 14
-19 3 -24z m-391 18 c0 -5 -2 -10 -4 -10 -3 0 -8 5 -11 10 -3 6 -1 10 4 10 6
0 11 -4 11 -10z m334 -17 c4 -10 4 -14 0 -10 -4 4 -14 1 -23 -6 -14 -11 -15
-10 -1 7 14 18 13 19 -3 13 -11 -4 -16 -3 -12 3 10 16 32 12 39 -7z m-418 -9
c-4 -10 15 -36 59 -80 36 -36 63 -70 59 -76 -4 -5 -13 4 -21 21 -14 28 -24 35
-45 32 -4 0 -5 6 -1 15 5 14 3 15 -15 5 -13 -7 -22 -8 -22 -2 0 5 5 11 11 13
6 2 2 11 -9 21 -19 17 -19 17 -21 -33 0 -34 3 -49 10 -44 7 4 9 -2 7 -17 -1
-12 -8 -24 -14 -26 -7 -2 -11 30 -13 92 -2 67 1 95 9 95 7 0 9 -7 6 -16z m161
-6 c-3 -8 -6 -5 -6 6 -1 11 2 17 5 13 3 -3 4 -12 1 -19z m543 -4 c0 -2 -9 0
-20 6 -11 6 -20 13 -20 16 0 2 9 0 20 -6 11 -6 20 -13 20 -16z m118 -1 c-2
-14 -10 -28 -18 -30 -12 -4 -13 -3 -1 5 8 6 12 19 8 31 -3 12 -1 21 5 21 5 0
8 -12 6 -27z m-495 0 c-3 -7 -6 -13 -8 -13 -2 0 -5 6 -8 13 -3 8 1 14 8 14 7
0 11 -6 8 -14z m41 9 c3 -5 -1 -9 -9 -9 -8 0 -12 4 -9 9 3 4 7 8 9 8 2 0 6 -4
9 -8z m163 2 c-3 -3 -12 -4 -19 -1 -8 3 -5 6 6 6 11 1 17 -2 13 -5z m-467 -25
c7 -11 9 -23 6 -27 -3 -3 -6 1 -6 8 0 7 -3 11 -6 7 -8 -8 -33 16 -27 26 8 13
22 7 33 -14z m58 -4 c-3 -3 -9 2 -12 12 -6 14 -5 15 5 6 7 -7 10 -15 7 -18z
m177 16 c3 -5 1 -12 -5 -16 -7 -4 -7 -12 0 -25 7 -13 7 -21 -2 -26 -6 -4 -8
-3 -5 2 3 6 2 16 -3 24 -5 9 -4 20 3 29 10 12 9 14 -6 8 -11 -4 -16 -3 -12 3
8 13 22 13 30 1z m-115 -19 c-44 -12 -45 -13 -20 -28 21 -12 22 -14 5 -12 -15
2 -19 -2 -17 -17 2 -11 1 -17 -3 -14 -3 4 -8 21 -10 38 -3 26 0 34 18 40 12 5
26 6 32 3 5 -3 2 -7 -5 -10z m70 -1 c0 -4 -6 -8 -13 -8 -8 0 -14 6 -14 13 0 7
6 10 14 7 7 -3 13 -8 13 -12z m190 7 c0 -6 -3 -8 -6 -5 -4 3 -15 2 -25 -4 -13
-7 -25 -6 -37 1 -15 9 -14 10 6 5 12 -4 22 -3 22 2 0 5 9 9 20 10 11 1 20 -3
20 -9z m139 -2 c7 -8 8 -17 3 -20 -6 -3 -12 3 -15 14 -6 24 -4 25 12 6z m156
-15 c4 -13 12 -18 23 -14 13 4 12 2 -3 -10 -19 -15 -20 -14 -23 5 -3 17 -6 19
-14 7 -8 -11 -9 -11 -5 3 3 9 1 19 -6 22 -7 2 -5 5 5 5 9 1 19 -8 23 -18z
m-532 -6 c-3 -9 -8 -14 -10 -11 -3 3 -2 9 2 15 9 16 15 13 8 -4z m267 3 c0 -9
4 -8 10 2 6 9 10 10 10 3 0 -19 -17 -24 -30 -8 -9 10 -9 15 -1 15 6 0 11 -6
11 -12z m53 5 c3 -5 1 -17 -4 -28 -4 -11 -8 -14 -8 -6 -1 9 -5 10 -14 5 -7 -5
-5 -2 5 8 13 12 15 18 6 21 -9 4 -10 6 -1 6 6 1 14 -2 16 -6z m-273 -20 c-8
-3 -18 -10 -21 -15 -3 -5 -9 -3 -12 6 -5 12 0 16 21 15 16 0 21 -3 12 -6z
m113 -8 c4 -8 3 -16 -1 -19 -4 -3 -9 4 -9 15 -2 23 3 25 10 4z m182 5 c-3 -5
-1 -10 5 -10 6 0 8 -5 4 -11 -4 -8 -9 -7 -15 2 -7 12 -3 29 7 29 3 0 2 -4 -1
-10z m75 6 c0 -3 -4 -8 -10 -11 -5 -3 -10 -1 -10 4 0 6 5 11 10 11 6 0 10 -2
10 -4z m80 -14 c0 -4 -11 -9 -26 -10 -14 -1 -23 2 -19 8 7 12 45 14 45 2z
m-429 -29 c13 -16 12 -17 -3 -4 -17 13 -22 21 -14 21 2 0 10 -8 17 -17z m109
2 c-6 -8 -9 -18 -6 -24 3 -5 -3 -7 -14 -4 -19 5 -19 6 3 24 27 22 34 24 17 4z
m-175 -24 c-6 -6 -17 -4 -29 5 -11 8 -15 14 -10 14 6 0 16 -6 23 -12 12 -11
13 -9 7 7 -6 16 -5 18 5 8 8 -8 9 -16 4 -22z m311 13 c-3 -9 -6 -18 -6 -20 0
-2 -8 -4 -17 -4 -15 0 -16 2 -3 10 13 9 13 10 0 10 -13 0 -13 1 0 10 22 14 33
12 26 -6z m162 7 c2 -1 0 -6 -3 -11 -5 -8 -11 -8 -19 -1 -7 6 -17 7 -21 3 -5
-4 -5 -2 -2 5 6 9 18 10 45 4z m-624 -22 c-3 -5 -14 -5 -25 1 -26 14 -24 18 6
12 14 -2 22 -8 19 -13z m343 -1 c-3 -8 -6 -5 -6 6 -1 11 2 17 5 13 3 -3 4 -12
1 -19z m197 9 c4 4 4 -1 0 -11 -4 -11 -9 -14 -14 -6 -3 6 -14 8 -22 5 -9 -4
-19 -1 -24 6 -4 7 -3 10 4 5 6 -3 14 -2 17 4 5 8 11 8 19 1 7 -6 16 -8 20 -4z
m-452 -21 c-4 -15 -7 -17 -10 -6 -3 8 -10 18 -16 22 -6 4 -1 6 10 6 16 -2 20
-7 16 -22z m298 3 c0 -4 -7 -6 -15 -3 -8 4 -15 10 -15 15 0 4 7 6 15 3 8 -4
15 -10 15 -15z m-180 7 c0 -2 -7 -7 -16 -10 -8 -3 -12 -2 -9 4 6 10 25 14 25
6z m-185 -16 c-3 -5 -12 -10 -18 -10 -7 0 -6 4 3 10 19 12 23 12 15 0z m105 0
c0 -5 -7 -7 -15 -4 -8 4 -15 8 -15 10 0 2 7 4 15 4 8 0 15 -4 15 -10z m301
-10 c15 8 17 7 13 -4 -7 -18 -39 -14 -40 5 -1 9 1 10 3 2 3 -10 10 -10 24 -3z
m-241 -7 c0 -2 -10 -3 -22 -1 -15 2 -22 -2 -20 -10 1 -8 -2 -11 -8 -7 -18 11
8 34 30 28 11 -3 20 -7 20 -10z m90 0 c0 -7 -4 -13 -9 -13 -5 0 -13 6 -19 13
-8 10 -6 13 9 13 10 0 19 -6 19 -13z m77 -3 c-3 -11 -2 -18 3 -15 9 6 23 -25
15 -33 -3 -3 -5 0 -5 6 0 7 -5 12 -11 12 -6 0 -8 -7 -5 -16 4 -10 2 -13 -7 -7
-6 4 -18 8 -25 9 -19 3 -28 14 -12 14 9 0 7 5 -6 15 -18 13 -18 14 4 8 14 -3
21 -11 18 -19 -3 -8 0 -11 9 -7 8 3 12 9 9 15 -7 10 2 38 12 38 3 0 4 -9 1
-20z m-338 -13 c-13 -13 -26 -21 -29 -19 -5 4 38 42 48 42 3 0 -6 -10 -19 -23z
m105 -13 c2 -10 9 -20 16 -22 7 -3 10 0 6 7 -4 6 -3 11 2 11 5 0 8 -15 8 -34
-1 -19 -4 -32 -9 -29 -4 2 -5 8 -2 13 3 4 -1 13 -9 19 -11 9 -15 9 -20 -1 -3
-7 -3 -1 -1 15 2 15 0 27 -4 27 -4 0 -8 7 -8 15 0 21 18 3 21 -21z m104 11
c-3 -3 -9 2 -12 12 -6 14 -5 15 5 6 7 -7 10 -15 7 -18z m302 10 c0 -2 -10 -9
-22 -15 -22 -11 -22 -10 -4 4 21 17 26 19 26 11z m-340 -31 c-5 -12 -5 -24 -1
-26 5 -2 5 -12 0 -23 l-8 -20 -1 20 c-1 11 -3 32 -4 46 -1 14 4 26 10 26 9 0
10 -7 4 -23z m-253 -6 c-3 -8 -6 -5 -6 6 -1 11 2 17 5 13 3 -3 4 -12 1 -19z
m543 13 c0 -6 -5 -13 -12 -17 -7 -5 -8 -3 -3 6 6 10 4 12 -9 7 -10 -4 -15 -3
-11 3 8 13 35 13 35 1z m-263 -23 c-3 -8 -6 -5 -6 6 -1 11 2 17 5 13 3 -3 4
-12 1 -19z m-248 -2 c9 -11 9 -16 -1 -22 -7 -4 -10 -4 -6 1 4 4 3 14 -3 22 -6
7 -9 13 -6 13 2 0 10 -6 16 -14z m291 9 c0 -2 -6 -8 -13 -14 -10 -8 -14 -7
-14 2 0 8 6 14 14 14 7 0 13 -1 13 -2z m30 -5 c0 -5 -5 -10 -11 -10 -5 0 -7 5
-4 10 3 6 8 10 11 10 2 0 4 -4 4 -10z m32 -18 c-8 -2 -9 -9 -2 -21 6 -13 5
-18 -5 -18 -7 0 -11 6 -8 14 3 7 0 13 -6 13 -6 0 -11 -4 -11 -10 0 -5 -7 -6
-17 -3 -11 4 -14 3 -9 -5 4 -8 0 -12 -11 -12 -16 1 -15 3 6 20 13 11 30 20 38
20 8 0 11 4 8 10 -4 6 1 7 11 3 11 -4 13 -8 6 -11z m108 3 c0 -2 -6 -5 -13 -8
-8 -3 -14 1 -14 8 0 7 6 11 14 8 7 -3 13 -6 13 -8z m-380 -29 c0 -3 -7 -3 -15
0 -8 4 -15 1 -15 -4 0 -6 -9 -10 -20 -9 -21 1 -26 12 -11 21 5 4 12 0 14 -6 4
-8 8 -4 12 9 6 19 9 20 21 8 8 -7 14 -16 14 -19z m338 9 c-3 -3 -9 2 -12 12
-6 14 -5 15 5 6 7 -7 10 -15 7 -18z m-438 0 c0 -8 -2 -15 -4 -15 -2 0 -6 7
-10 15 -3 8 -1 15 4 15 6 0 10 -7 10 -15z m156 3 c3 -4 -1 -5 -10 -4 -8 1 -18
5 -22 8 -3 4 1 5 10 4 8 -1 18 -5 22 -8z m134 -2 c0 -2 -7 -6 -15 -10 -8 -3
-15 -1 -15 4 0 6 7 10 15 10 8 0 15 -2 15 -4z m107 -18 c-3 -8 -6 -5 -6 6 -1
11 2 17 5 13 3 -3 4 -12 1 -19z m20 0 c-3 -8 -6 -5 -6 6 -1 11 2 17 5 13 3 -3
4 -12 1 -19z m-257 -8 c8 -5 11 -10 5 -10 -5 0 -17 5 -25 10 -8 5 -10 10 -5
10 6 0 17 -5 25 -10z m85 -19 c-3 -6 -11 -11 -17 -11 -6 0 -6 6 2 15 14 17 26
13 15 -4z m40 1 c-3 -3 -11 0 -18 7 -9 10 -8 11 6 5 10 -3 15 -9 12 -12z
m-259 -10 c-8 -8 14 -43 23 -37 5 3 12 -2 15 -10 8 -22 -28 -1 -48 27 -20 28
-20 39 -1 31 9 -3 14 -8 11 -11z m99 8 c3 -5 1 -10 -4 -10 -6 0 -11 5 -11 10
0 6 2 10 4 10 3 0 8 -4 11 -10z m208 -3 c-4 -7 1 -8 12 -3 15 5 16 4 5 -9 -7
-9 -13 -14 -14 -13 -1 2 -7 10 -14 19 -9 13 -9 16 3 16 8 0 11 -5 8 -10z
m-269 -18 c-3 -5 -10 -7 -15 -3 -5 3 -7 10 -3 15 3 5 10 7 15 3 5 -3 7 -10 3
-15z m132 -7 c-10 -2 -22 0 -28 6 -6 6 0 7 19 4 21 -5 23 -7 9 -10z m64 8 c0
-5 -10 -10 -22 -9 -22 0 -22 1 -3 9 11 5 21 9 23 9 1 1 2 -3 2 -9z m43 -4 c4
-10 1 -13 -8 -9 -8 3 -12 9 -9 14 7 12 11 11 17 -5z m-206 -18 c2 -18 0 -20
-7 -8 -12 18 -13 30 -2 30 4 0 9 -10 9 -22z m45 15 c-6 -2 -9 -10 -6 -15 4 -7
2 -8 -5 -4 -13 9 -5 26 12 25 9 0 8 -2 -1 -6z m29 -20 c-10 -4 -10 -7 -1 -13
7 -5 2 -7 -13 -7 -20 0 -23 2 -14 13 7 7 19 13 27 13 12 0 12 -2 1 -6z m32 -8
c-3 -9 -8 -14 -10 -11 -3 3 -2 9 2 15 9 16 15 13 8 -4z m87 9 c0 -8 -19 -13
-24 -6 -3 5 1 9 9 9 8 0 15 -2 15 -3z m-38 -19 c0 -5 -5 -10 -12 -11 -7 -2 -6
-1 1 3 8 4 7 8 -2 15 -11 8 -11 9 -1 6 8 -2 14 -8 14 -13z m-92 -32 c9 -9 -65
9 -74 18 -5 4 8 3 30 -2 21 -6 41 -13 44 -16z m50 13 c0 -2 -7 -6 -15 -10 -8
-3 -15 -1 -15 4 0 6 7 10 15 10 8 0 15 -2 15 -4z"/>
<path d="M2962 5247 c-14 -17 12 -52 33 -44 18 8 20 28 3 45 -15 15 -23 15
-36 -1z m28 -32 c0 -5 -5 -3 -10 5 -5 8 -10 20 -10 25 0 6 5 3 10 -5 5 -8 10
-19 10 -25z"/>
<path d="M2860 5179 c0 -5 5 -7 10 -4 6 3 10 8 10 11 0 2 -4 4 -10 4 -5 0 -10
-5 -10 -11z"/>
<path d="M2690 5124 c0 -8 5 -12 10 -9 6 3 10 10 10 16 0 5 -4 9 -10 9 -5 0
-10 -7 -10 -16z"/>
<path d="M2694 5063 c4 -41 15 -50 45 -33 16 8 21 8 22 -2 1 -16 17 21 18 41
1 9 -7 5 -19 -9 -16 -19 -22 -20 -35 -10 -8 6 -14 15 -13 18 2 18 -3 32 -12
32 -5 0 -8 -17 -6 -37z"/>
<path d="M2813 4844 c3 -4 2 -14 -3 -23 -5 -10 -5 -23 1 -32 7 -11 9 -11 9 4
0 10 7 20 15 23 12 5 13 10 4 20 -6 8 -16 14 -22 14 -6 0 -7 -3 -4 -6z"/>
<path d="M2691 4244 c0 -11 3 -14 6 -6 3 7 2 16 -1 19 -3 4 -6 -2 -5 -13z"/>
<path d="M2220 1502 c0 -914 1 -904 -57 -972 -55 -66 -165 -93 -277 -70 -76
16 -137 69 -163 143 -17 49 -18 108 -18 889 l0 838 -158 0 -158 0 3 -872 c3
-817 5 -877 22 -928 32 -96 67 -153 135 -220 73 -72 156 -121 246 -145 77 -20
252 -20 329 0 197 52 349 210 391 410 12 59 15 209 15 918 l0 847 -155 0 -155
0 0 -838z"/>
<path d="M858 1463 c-3 -809 -4 -871 -21 -908 -24 -53 -44 -74 -92 -96 -51
-24 -119 -24 -170 0 -77 35 -113 98 -122 212 l-6 69 -155 0 -155 0 8 -91 c3
-50 13 -116 21 -146 43 -167 154 -284 313 -333 76 -24 249 -27 328 -6 146 39
254 134 315 277 l23 54 5 918 5 917 -147 0 -147 0 -3 -867z"/>
<path d="M6295 2316 c-128 -40 -184 -117 -185 -251 0 -144 34 -192 215 -300
137 -82 170 -114 179 -179 14 -90 -45 -166 -127 -166 -58 0 -127 79 -127 145
l0 30 -79 3 c-44 2 -82 -1 -85 -6 -10 -17 15 -146 36 -179 55 -91 127 -127
248 -127 102 0 171 26 224 84 52 57 69 114 64 212 -6 141 -53 204 -229 307
-57 34 -111 67 -119 74 -34 26 -50 62 -50 110 0 42 5 54 34 83 38 38 86 45
135 19 30 -15 61 -68 61 -104 0 -20 5 -21 80 -21 l80 0 0 28 c0 59 -30 132
-73 176 -65 68 -182 94 -282 62z"/>
<path d="M3370 2304 c0 -9 147 -676 206 -931 l16 -73 99 0 98 0 10 38 c9 33
221 945 225 965 0 5 -39 8 -89 9 l-89 0 -23 -109 c-13 -59 -46 -234 -74 -388
-28 -154 -52 -281 -54 -283 -1 -2 -5 12 -8 30 -66 389 -119 684 -133 730 -4
14 -21 17 -94 20 -61 2 -90 -1 -90 -8z"/>
<path d="M4140 1810 l0 -510 220 0 220 0 0 75 0 75 -135 0 -135 0 0 140 0 140
123 0 122 0 1 70 0 70 -123 0 -123 0 0 145 0 145 135 0 136 0 -3 78 -3 77
-217 3 -218 2 0 -510z"/>
<path d="M4727 2314 c-4 -4 -7 -234 -7 -511 l0 -503 85 0 85 0 -5 323 c-3 177
-8 335 -11 352 -8 49 9 17 70 -135 32 -80 97 -233 145 -340 l87 -195 82 -3 82
-3 0 511 0 510 -80 0 -80 0 0 -332 0 -333 -79 190 c-44 105 -106 253 -140 330
l-61 140 -83 3 c-46 1 -86 0 -90 -4z"/>
<path d="M2840 1805 l0 -505 226 0 227 0 -7 38 c-3 20 -6 54 -6 75 l0 37 -135
0 -135 0 0 140 0 140 125 0 125 0 0 70 0 70 -125 0 -125 0 0 145 0 145 135 0
135 0 0 75 0 75 -220 0 -220 0 0 -505z"/>
<path d="M5460 2235 l0 -75 100 0 100 0 -2 -430 -3 -430 78 0 77 0 0 430 0
430 100 0 100 0 0 75 0 75 -275 0 -275 0 0 -75z"/>
<path d="M3027 1100 c-152 -26 -236 -166 -196 -326 18 -72 68 -116 209 -188
150 -75 174 -102 167 -180 -4 -40 -11 -55 -36 -78 -75 -67 -201 -7 -201 96 0
26 -1 26 -80 26 l-80 0 0 -43 c0 -73 26 -132 80 -180 58 -52 118 -73 210 -71
193 4 310 162 256 348 -25 87 -75 133 -216 206 -132 67 -160 93 -160 152 0 56
34 88 95 88 26 0 55 -5 66 -10 22 -12 49 -61 49 -90 0 -18 6 -20 81 -20 l82 0
-7 51 c-10 76 -34 126 -77 163 -58 49 -152 71 -242 56z"/>
<path d="M4208 1086 c-107 -38 -158 -117 -158 -240 0 -70 25 -133 67 -172 15
-14 80 -52 144 -84 72 -37 127 -71 144 -91 24 -30 27 -39 23 -93 -6 -78 -35
-106 -110 -106 -43 0 -54 4 -84 34 -22 22 -35 47 -40 75 l-7 41 -79 0 -80 0 7
-57 c17 -142 97 -222 237 -239 117 -14 235 38 286 125 24 41 27 56 27 136 0
74 -4 98 -22 132 -32 60 -95 109 -218 172 -130 67 -155 97 -136 161 15 49 44
70 97 70 53 0 90 -29 104 -81 l11 -39 74 0 75 0 0 33 c0 18 -7 56 -15 84 -19
64 -84 125 -150 142 -59 15 -151 13 -197 -3z"/>
<path d="M3386 1068 c4 -13 58 -141 120 -286 l114 -263 0 -175 0 -174 75 0 75
0 0 173 0 174 101 239 c55 131 109 260 120 287 l19 47 -88 0 -87 0 -39 -102
c-97 -258 -98 -261 -107 -246 -4 8 -29 70 -54 139 -25 68 -52 143 -61 167
l-16 42 -90 0 c-88 0 -89 0 -82 -22z"/>
<path d="M4650 1020 l0 -70 95 0 95 0 0 -395 0 -395 75 0 75 0 0 395 0 395
100 0 100 0 0 70 0 70 -270 0 -270 0 0 -70z"/>
<path d="M5280 625 l0 -465 215 0 215 0 0 70 0 69 -131 3 -130 3 -5 123 -6
122 121 0 121 0 0 75 0 75 -120 0 -120 0 0 120 0 120 130 0 130 0 0 75 0 75
-210 0 -210 0 0 -465z"/>
<path d="M5840 625 l0 -465 81 0 80 0 -3 329 c-2 181 -1 327 2 324 3 -2 41
-115 85 -251 l81 -247 75 -3 74 -3 84 260 c46 143 87 264 90 269 3 6 5 -47 3
-116 -1 -70 -3 -225 -5 -345 l-2 -217 84 0 84 0 -6 137 c-4 75 -7 284 -7 465
l0 328 -108 0 -109 0 -71 -217 c-38 -120 -78 -244 -88 -275 -16 -52 -34 -77
-34 -47 0 6 -39 130 -86 275 l-86 264 -109 0 -109 0 0 -465z"/>
</g>
</svg>
